<?xml version="1.0" encoding="utf-8"?>
<!-- Generator: Adobe Illustrator 15.0.0, SVG Export Plug-In . SVG Version: 6.00 Build 0)  -->
<!DOCTYPE svg PUBLIC "-//W3C//DTD SVG 1.1//EN" "http://www.w3.org/Graphics/SVG/1.1/DTD/svg11.dtd">
<svg version="1.1" id="レイヤー_1" xmlns="http://www.w3.org/2000/svg" xmlns:xlink="http://www.w3.org/1999/xlink" x="0px"
	 y="0px" width="100px" height="70px" viewBox="0 0 100 70" enable-background="new 0 0 100 70" xml:space="preserve">
<g>
	<g>
		<g>
			<path d="M49.71,39.89c0,0-0.385,6.98-0.674,8.128c-0.289,1.147-2.216,6.598-2.794,7.459c-0.579,0.86-7.13,10.041-7.708,10.806
				s-1.06,2.391-2.794,2.582s-5.492,0.287-6.455-0.478c-0.964-0.765-1.445-1.052-1.445-1.052s-3.662-0.382-4.721-1.721
				c-1.06-1.339-3.854-3.155-4.432-3.825c-0.578-0.669-2.987-2.582-3.854-4.208c-0.867-1.625-1.927-2.677-2.023-5.164
				c-0.096-2.487,0.385-6.79,1.542-8.511c1.156-1.721,4.432-4.781,6.263-5.929s6.552-2.008,8.575-2.964
				c0.984-0.489,1.721-0.914,2.023-0.957s13.904,0.85,16.216,1.901C49.74,37.01,49.71,39.89,49.71,39.89z"/>
			<g>
				<linearGradient id="SVGID_1_" gradientUnits="userSpaceOnUse" x1="27.4624" y1="44.6255" x2="46.8379" y2="44.6255">
					<stop  offset="0" style="stop-color:#CCE0F4"/>
					<stop  offset="0.0641" style="stop-color:#C3DCF2"/>
					<stop  offset="0.1706" style="stop-color:#A9D2EE"/>
					<stop  offset="0.3066" style="stop-color:#80C2E7"/>
					<stop  offset="0.4649" style="stop-color:#47ACDE"/>
					<stop  offset="0.5674" style="stop-color:#1E9CD7"/>
					<stop  offset="0.8652" style="stop-color:#0075BE"/>
					<stop  offset="0.9944" style="stop-color:#005B97"/>
				</linearGradient>
				<path fill="url(#SVGID_1_)" d="M35.894,40.055c0,0,8.611-1.691,9.149-1.424c0.539,0.267,1.788,0.356,1.794,0.801
					c0.009,0.649-9.805,8.365-10.433,8.632s-6.431,2.585-7.148,2.585s-1.794-0.623-1.794-0.623s1.704-3.205,2.242-3.829
					c0.539-0.623,1.615-0.89,2.063-1.246c0.448-0.356,1.256-1.158,1.525-1.603c0.269-0.445,0.359-1.603,0.359-1.603
					S35.087,40.411,35.894,40.055z"/>
				<linearGradient id="SVGID_2_" gradientUnits="userSpaceOnUse" x1="30.7148" y1="51.8838" x2="47.5161" y2="51.8838">
					<stop  offset="0" style="stop-color:#CCE0F4"/>
					<stop  offset="0.0641" style="stop-color:#C3DCF2"/>
					<stop  offset="0.1706" style="stop-color:#A9D2EE"/>
					<stop  offset="0.3066" style="stop-color:#80C2E7"/>
					<stop  offset="0.4649" style="stop-color:#47ACDE"/>
					<stop  offset="0.5674" style="stop-color:#1E9CD7"/>
					<stop  offset="0.8652" style="stop-color:#0075BE"/>
					<stop  offset="0.9944" style="stop-color:#005B97"/>
				</linearGradient>
				<path fill="url(#SVGID_2_)" d="M47.347,39.981c0,0-9.792,7.585-10.642,8.43c0,0-2.075,3.652-2.246,4.369
					c-0.17,0.718-0.17,1.689-0.255,1.9c-0.085,0.211-0.68,1.013-0.851,1.098c-0.17,0.084-0.681,0.296-0.893,0.464
					c-0.213,0.169-1.787,3.546-1.744,4.475s0.383,1.984,0.681,2.195c0.298,0.211,0.766,0.169,0.766,0.169s0.127,0.169,0.383,0.422
					c0.255,0.253,0.681,0.464,1.021,0.042c0.34-0.422,2.807-4.011,3.19-4.939s2.68-5.277,3.105-5.995s4.564-6.255,5.288-6.804
					c0.723-0.549,1.221-1.555,1.348-1.935C46.624,43.493,47.984,40.361,47.347,39.981z"/>
				<linearGradient id="SVGID_3_" gradientUnits="userSpaceOnUse" x1="24.4575" y1="55.311" x2="35.5996" y2="55.311">
					<stop  offset="0" style="stop-color:#CCE0F4"/>
					<stop  offset="0.0641" style="stop-color:#C3DCF2"/>
					<stop  offset="0.1706" style="stop-color:#A9D2EE"/>
					<stop  offset="0.3066" style="stop-color:#80C2E7"/>
					<stop  offset="0.4649" style="stop-color:#47ACDE"/>
					<stop  offset="0.5674" style="stop-color:#1E9CD7"/>
					<stop  offset="0.8652" style="stop-color:#0075BE"/>
					<stop  offset="0.9944" style="stop-color:#005B97"/>
				</linearGradient>
				<path fill="url(#SVGID_3_)" d="M35.58,49.047c0.207,0.087-1.3,3.116-1.749,3.65c-0.448,0.534-1.121,1.069-1.48,1.425
					s-0.314,1.335-0.359,1.691c-0.045,0.356-1.884,3.873-2.018,4.541c-0.135,0.668-0.27,1.068-0.763,1.113S28,61.333,27.866,61.289
					c-0.134-0.044-1.031,0.4-1.211,0.267c-0.179-0.134-1.48-1.603-1.839-1.781c-0.358-0.178-0.448-0.356-0.269-0.846
					c0.18-0.49,1.974-3.695,2.557-4.273s1.794-2.894,1.973-3.116C29.256,51.317,35.266,48.913,35.58,49.047z"/>
				<linearGradient id="SVGID_4_" gradientUnits="userSpaceOnUse" x1="20.1514" y1="54.543" x2="28.4707" y2="54.543">
					<stop  offset="0" style="stop-color:#CCE0F4"/>
					<stop  offset="0.0641" style="stop-color:#C3DCF2"/>
					<stop  offset="0.1706" style="stop-color:#A9D2EE"/>
					<stop  offset="0.3066" style="stop-color:#80C2E7"/>
					<stop  offset="0.4649" style="stop-color:#47ACDE"/>
					<stop  offset="0.5674" style="stop-color:#1E9CD7"/>
					<stop  offset="0.8652" style="stop-color:#0075BE"/>
					<stop  offset="0.9944" style="stop-color:#005B97"/>
				</linearGradient>
				<path fill="url(#SVGID_4_)" d="M28.449,51.184c-0.18-0.312-0.987-0.89-1.794-0.668c-0.807,0.223-4.126,2.092-4.844,2.983
					c-0.718,0.89-1.66,1.157-1.66,1.825c0,0.668,0.628,1.825,0.853,2.137c0.224,0.312,0.403,0.712,0.403,0.712
					s0.987-0.044,1.346,0.089c0.359,0.134,0,0.312,0.404,0.356c0.403,0.044,1.659-0.445,2.018-1.425
					c0.359-0.979,1.077-2.404,1.166-2.626c0.09-0.223,0.763-0.979,1.032-1.113C27.642,53.32,28.628,51.495,28.449,51.184z"/>
				<linearGradient id="SVGID_5_" gradientUnits="userSpaceOnUse" x1="17.2334" y1="50.0469" x2="29.6382" y2="50.0469">
					<stop  offset="0" style="stop-color:#CCE0F4"/>
					<stop  offset="0.0641" style="stop-color:#C3DCF2"/>
					<stop  offset="0.1706" style="stop-color:#A9D2EE"/>
					<stop  offset="0.3066" style="stop-color:#80C2E7"/>
					<stop  offset="0.4649" style="stop-color:#47ACDE"/>
					<stop  offset="0.5674" style="stop-color:#1E9CD7"/>
					<stop  offset="0.8652" style="stop-color:#0075BE"/>
					<stop  offset="0.9944" style="stop-color:#005B97"/>
				</linearGradient>
				<path fill="url(#SVGID_5_)" d="M29.615,45.619c0.224,0.089-1.256,1.024-1.615,1.781s-0.852,2.226-1.256,2.315
					c-0.404,0.089-1.974,0.623-2.243,0.712s-2.377,1.736-2.826,2.137c-0.448,0.4-1.839,1.958-2.422,1.914s-1.166-0.223-1.39-0.712
					c-0.224-0.49-0.583-0.757-0.628-1.736s0.404-1.647,0.583-1.736c0.18-0.089,3.364-1.558,3.768-1.825s1.345-0.712,2.108-0.712
					s0.897,0,1.839-0.49S29.391,45.53,29.615,45.619z"/>
				<linearGradient id="SVGID_6_" gradientUnits="userSpaceOnUse" x1="17.6392" y1="45.5234" x2="33.0605" y2="45.5234">
					<stop  offset="0" style="stop-color:#CCE0F4"/>
					<stop  offset="0.0641" style="stop-color:#C3DCF2"/>
					<stop  offset="0.1706" style="stop-color:#A9D2EE"/>
					<stop  offset="0.3066" style="stop-color:#80C2E7"/>
					<stop  offset="0.4649" style="stop-color:#47ACDE"/>
					<stop  offset="0.5674" style="stop-color:#1E9CD7"/>
					<stop  offset="0.8652" style="stop-color:#0075BE"/>
					<stop  offset="0.9944" style="stop-color:#005B97"/>
				</linearGradient>
				<path fill="url(#SVGID_6_)" d="M17.729,49.091c0.27,0.445,0.897,0.044,1.525-0.223s1.256-0.445,1.884-0.712
					s2.153-0.624,2.602-1.068c0.448-0.445,1.301-0.534,1.525-0.534s1.345-0.178,1.48-0.267c0.135-0.089,2.602-1.202,3.05-1.247
					c0.449-0.044,0.852-0.089,1.301-0.312c0.448-0.223,1.525-0.757,1.659-1.113c0.135-0.356,0.404-1.469,0.27-1.647
					c-0.135-0.178-2.333-0.268-2.646-0.178c-0.314,0.089-2.96,0.667-3.768,0.801c-0.807,0.133-2.152,0.534-2.422,0.623
					c-0.269,0.089-3.184,0.846-3.588,0.846s-1.974,1.068-2.153,1.647c-0.179,0.579-0.314,1.202-0.448,1.647
					C17.864,47.8,17.46,48.646,17.729,49.091z"/>
				<linearGradient id="SVGID_7_" gradientUnits="userSpaceOnUse" x1="20.8691" y1="40.6372" x2="35.3364" y2="40.6372">
					<stop  offset="0" style="stop-color:#CCE0F4"/>
					<stop  offset="0.0641" style="stop-color:#C3DCF2"/>
					<stop  offset="0.1706" style="stop-color:#A9D2EE"/>
					<stop  offset="0.3066" style="stop-color:#80C2E7"/>
					<stop  offset="0.4649" style="stop-color:#47ACDE"/>
					<stop  offset="0.5674" style="stop-color:#1E9CD7"/>
					<stop  offset="0.8652" style="stop-color:#0075BE"/>
					<stop  offset="0.9944" style="stop-color:#005B97"/>
				</linearGradient>
				<path fill="url(#SVGID_7_)" d="M35.311,39.699c0.269,0.312-1.659,1.469-2.243,1.514c-0.583,0.044-2.915,0.267-3.229,0.267
					s-3.588,0.534-3.947,0.623s-2.691,1.113-3.409,0.979c-0.718-0.134-1.615,0.044-1.615-0.534s0.718-1.736,1.077-2.137
					c0.358-0.401,3.543-1.87,4.216-2.003c0.673-0.133,3.136-0.174,3.947-0.223C31.588,38.096,35.042,39.387,35.311,39.699z"/>
				<linearGradient id="SVGID_8_" gradientUnits="userSpaceOnUse" x1="30.0591" y1="37.7046" x2="45.0894" y2="37.7046">
					<stop  offset="0" style="stop-color:#CCE0F4"/>
					<stop  offset="0.0641" style="stop-color:#C3DCF2"/>
					<stop  offset="0.1706" style="stop-color:#A9D2EE"/>
					<stop  offset="0.3066" style="stop-color:#80C2E7"/>
					<stop  offset="0.4649" style="stop-color:#47ACDE"/>
					<stop  offset="0.5674" style="stop-color:#1E9CD7"/>
					<stop  offset="0.8652" style="stop-color:#0075BE"/>
					<stop  offset="0.9944" style="stop-color:#005B97"/>
				</linearGradient>
				<path fill="url(#SVGID_8_)" d="M30.063,37.266c-0.179,0.445,5.113,1.943,5.696,2.077c0.583,0.133,1.973,0.044,2.556-0.223
					c0.336-0.154,1.607-0.218,2.415-0.307s3.857-0.495,4.261-0.673c0.404-0.178-0.528-0.746-1.158-1.024
					c-0.584-0.257-2.943-0.632-3.885-0.632s-3.356-0.169-4.074-0.436S30.243,36.821,30.063,37.266z"/>
				<linearGradient id="SVGID_9_" gradientUnits="userSpaceOnUse" x1="34.7559" y1="53.3755" x2="47.9263" y2="53.3755">
					<stop  offset="0" style="stop-color:#CCE0F4"/>
					<stop  offset="0.0641" style="stop-color:#C3DCF2"/>
					<stop  offset="0.1706" style="stop-color:#A9D2EE"/>
					<stop  offset="0.3066" style="stop-color:#80C2E7"/>
					<stop  offset="0.4649" style="stop-color:#47ACDE"/>
					<stop  offset="0.5674" style="stop-color:#1E9CD7"/>
					<stop  offset="0.8652" style="stop-color:#0075BE"/>
					<stop  offset="0.9944" style="stop-color:#005B97"/>
				</linearGradient>
				<path fill="url(#SVGID_9_)" d="M34.759,63.547c0.064,0.48,0.71,0.929,1.291,0.993c0.581,0.064,0.323,0.48,0.323,0.577
					c0,0.096,0.065,0.096,0.388-0.064c0.323-0.161,0.613-0.192,0.904-0.256s1.517-0.865,1.808-1.378s2.098-4.677,2.615-5.734
					c0.517-1.058,2.356-5.19,2.808-5.895c0.452-0.705,2.841-5.351,2.841-6.248s0.355-3.973,0.097-3.973s-1.033,2.595-1.388,3.204
					c-0.355,0.609-1.969,2.723-2.518,3.268c-0.549,0.544-2.485,3.14-2.873,3.813c-0.387,0.673-1.904,2.916-2.195,3.78
					c-0.291,0.865-2.178,4.222-2.647,4.998C35.63,61.592,34.694,63.066,34.759,63.547z"/>
				<linearGradient id="SVGID_10_" gradientUnits="userSpaceOnUse" x1="40.3438" y1="52.5137" x2="48.6191" y2="52.5137">
					<stop  offset="0" style="stop-color:#CCE0F4"/>
					<stop  offset="0.0641" style="stop-color:#C3DCF2"/>
					<stop  offset="0.1706" style="stop-color:#A9D2EE"/>
					<stop  offset="0.3066" style="stop-color:#80C2E7"/>
					<stop  offset="0.4649" style="stop-color:#47ACDE"/>
					<stop  offset="0.5674" style="stop-color:#1E9CD7"/>
					<stop  offset="0.8652" style="stop-color:#0075BE"/>
					<stop  offset="0.9944" style="stop-color:#005B97"/>
				</linearGradient>
				<path fill="url(#SVGID_10_)" d="M48.405,42.432c0.218,0,0.306,4.51,0.087,5.42c-0.218,0.91-1.136,4.119-1.311,4.596
					s-0.83,2.255-1.092,2.645c-0.262,0.391-1.617,1.908-1.835,2.298c-0.218,0.391-2.097,2.992-2.315,3.382
					c-0.218,0.391-1.354,1.865-1.573,1.821c-0.219-0.043,1.223-2.428,1.617-2.992c0.393-0.564,1.442-3.686,1.704-4.207
					c0.262-0.521,1.66-3.599,1.835-3.902c0.175-0.304,1.966-4.163,2.098-4.336c0.131-0.174,0.568-2.082,0.568-2.472
					C48.187,44.296,48.187,42.432,48.405,42.432z"/>
			</g>
			<path fill="#FFFFFF" d="M35.772,66.043c0.034,0.144,0.946,0.28,1.245,0.14c0.299-0.14,0.996-0.233,0.996-0.233
				s0.448-0.513,0.299-0.653c-0.149-0.14-1.045,0-1.195,0S35.673,65.624,35.772,66.043z"/>
			<path fill="#FFFFFF" d="M35.209,66.024c0.111-0.143-0.224-0.72-0.498-0.749c-0.274-0.029-0.533-0.306-0.706-0.299
				c-0.172,0.007-0.681,0.221-0.73,0.418c-0.05,0.197,0.522,0.526,0.597,0.602C33.948,66.072,34.885,66.439,35.209,66.024z"/>
			<path fill="#FFFFFF" d="M30.839,68.015c0.096-0.082-0.059-0.539-0.244-0.603c-0.186-0.064-0.328-0.3-0.447-0.323
				c-0.12-0.023-0.5,0.044-0.561,0.173c-0.061,0.129,0.291,0.453,0.333,0.517C29.96,67.844,30.56,68.253,30.839,68.015z"/>
			<path fill="#FFFFFF" d="M31.274,65.384c0.13,0.142,0.718,0.423,0.852,0.334c0.135-0.089-0.202-0.69-0.247-0.891
				c-0.045-0.2-0.179-0.646-0.561-0.49S31.05,65.139,31.274,65.384z"/>
			<path fill="#FFFFFF" d="M33.542,68.176c0.161-0.036,0.539-0.301,0.476-0.406c-0.063-0.105-0.707-0.08-0.91-0.111
				c-0.203-0.031-0.66-0.08-0.576,0.189C32.616,68.118,33.264,68.238,33.542,68.176z"/>
			<path fill="#FFFFFF" d="M29.934,63.132c-0.125-0.098-0.29,0.055-0.381,0.149c-0.092,0.094-0.076,0.244-0.008,0.403
				c0.067,0.159,0.245,0.507,0.521,0.321C30.342,63.818,30.15,63.301,29.934,63.132z"/>
			<path fill="#FFFFFF" d="M34.789,67.986c-0.127,0.1,0.033,0.225,0.132,0.295c0.099,0.07,0.274,0.055,0.466-0.001
				s0.615-0.2,0.429-0.413C35.629,67.655,35.008,67.814,34.789,67.986z"/>
			<path fill="#FFFFFF" d="M28.703,65.623c-0.219-0.022-0.29,0.276-0.324,0.453c-0.034,0.177,0.1,0.339,0.299,0.474
				s0.669,0.41,0.844-0.01C29.696,66.12,29.08,65.66,28.703,65.623z"/>
			<path fill="#FFFFFF" d="M21.66,62.822c0.122-0.035,0.161-0.484,0.015-0.607s-0.184-0.377-0.285-0.44
				c-0.102-0.063-0.48-0.145-0.588-0.056c-0.108,0.089,0.088,0.495,0.101,0.565S21.306,62.925,21.66,62.822z"/>
			<path fill="#FFFFFF" d="M23.938,64.952c0.146,0.078,0.607,0.137,0.628,0.025c0.021-0.112-0.485-0.507-0.619-0.658
				c-0.133-0.151-0.449-0.477-0.562-0.238S23.686,64.817,23.938,64.952z"/>
			<path fill="#FFFFFF" d="M25.986,65.251c-0.157,0.039-0.06,0.205,0.003,0.302c0.064,0.096,0.232,0.147,0.433,0.169
				c0.2,0.022,0.649,0.052,0.562-0.198C26.896,65.274,26.257,65.184,25.986,65.251z"/>
			<path fill="#FFFFFF" d="M18.763,59.594c-0.201-0.072-0.419,0.148-0.541,0.281c-0.121,0.133-0.073,0.296,0.053,0.454
				s0.443,0.496,0.822,0.204C19.477,60.242,19.11,59.719,18.763,59.594z"/>
			<path fill="#FFFFFF" d="M24.279,61.589c-0.15-0.071-0.298,0.104-0.379,0.21s-0.038,0.247,0.062,0.387
				c0.1,0.14,0.349,0.442,0.61,0.214C24.833,62.174,24.539,61.712,24.279,61.589z"/>
			<path fill="#FFFFFF" d="M27.566,63.25c-0.107-0.04-0.222,0.079-0.286,0.15c-0.064,0.071-0.038,0.16,0.03,0.247
				c0.068,0.086,0.238,0.271,0.438,0.115C27.949,63.605,27.751,63.32,27.566,63.25z"/>
			<path fill="#FFFFFF" d="M19.311,58.027c-0.107-0.04-0.222,0.079-0.286,0.15c-0.063,0.072-0.037,0.16,0.03,0.247
				c0.067,0.086,0.238,0.271,0.438,0.115S19.496,58.097,19.311,58.027z"/>
			<path fill="#FFFFFF" d="M16.03,46.962c-0.043-0.105-0.209-0.107-0.305-0.104c-0.096,0.003-0.143,0.083-0.161,0.19
				c-0.018,0.108-0.037,0.358,0.215,0.396C16.031,47.482,16.105,47.144,16.03,46.962z"/>
			<path fill="#FFFFFF" d="M26.838,36.661c0.03-0.122-0.126-0.153-0.22-0.167c-0.093-0.014-0.193,0.064-0.283,0.179
				s-0.279,0.382-0.065,0.468C26.484,37.226,26.787,36.872,26.838,36.661z"/>
			<path fill="#FFFFFF" d="M14.088,52.406c0.103,0.016,0.325-0.387,0.272-0.56c-0.053-0.172,0.03-0.424-0.016-0.523
				c-0.047-0.1-0.285-0.325-0.402-0.285c-0.116,0.04-0.149,0.496-0.17,0.566C13.751,51.675,13.789,52.361,14.088,52.406z"/>
			<path fill="#FFFFFF" d="M15.017,45.68c0.087,0.057,0.458-0.217,0.483-0.396c0.025-0.179,0.206-0.373,0.205-0.482
				c0-0.109-0.122-0.414-0.245-0.425s-0.344,0.389-0.393,0.444C15.019,44.877,14.764,45.516,15.017,45.68z"/>
			<path fill="#FFFFFF" d="M22.367,38.081c0.028,0.109,0.646,0.171,0.843,0.049c0.196-0.121,0.556-0.14,0.662-0.226
				c0.106-0.086,0.284-0.416,0.179-0.516c-0.105-0.101-0.704,0.049-0.804,0.057C23.146,37.451,22.286,37.763,22.367,38.081z"/>
			<path fill="#FFFFFF" d="M30.107,35.409c0.051,0.101,0.668,0.028,0.833-0.133c0.165-0.161,0.513-0.256,0.597-0.363
				s0.187-0.467,0.062-0.542c-0.125-0.076-0.676,0.2-0.773,0.228S29.958,35.117,30.107,35.409z"/>
			<path fill="#FFFFFF" d="M29.105,35.618c-0.029-0.112-0.537-0.16-0.688-0.03c-0.152,0.13-0.444,0.159-0.525,0.25
				c-0.081,0.092-0.205,0.436-0.113,0.538c0.092,0.101,0.57-0.068,0.651-0.078C28.511,36.288,29.192,35.944,29.105,35.618z"/>
			<path fill="#FFFFFF" d="M14.513,55.495c0.124,0.079,0.58,0.172,0.64,0.081c0.061-0.091-0.328-0.467-0.414-0.605
				c-0.086-0.138-0.301-0.438-0.499-0.251C14.042,54.907,14.299,55.358,14.513,55.495z"/>
			<path fill="#FFFFFF" d="M15.538,53.581c0.074,0.09,0.412,0.289,0.491,0.244c0.079-0.044-0.111-0.415-0.135-0.535
				c-0.024-0.12-0.098-0.388-0.32-0.319C15.352,53.041,15.411,53.424,15.538,53.581z"/>
			<path fill="#FFFFFF" d="M16.609,57.081c-0.139-0.076-0.229,0.105-0.276,0.215c-0.047,0.11,0.017,0.256,0.127,0.403
				c0.11,0.146,0.377,0.463,0.551,0.229S16.85,57.211,16.609,57.081z"/>
			<path fill="#FFFFFF" d="M17.5,41.633c0.006-0.157-0.197-0.155-0.317-0.148c-0.12,0.007-0.223,0.13-0.306,0.294
				c-0.083,0.164-0.248,0.542,0.041,0.592S17.491,41.905,17.5,41.633z"/>
			<path fill="#FFFFFF" d="M20.067,40.119c0.1-0.214-0.171-0.21-0.335-0.2s-0.373,0.177-0.58,0.4
				c-0.206,0.223-0.648,0.738-0.293,0.803C19.214,41.188,19.895,40.488,20.067,40.119z"/>
			<path fill="#FFFFFF" d="M14.39,48.694c-0.053-0.186-0.324-0.185-0.482-0.177c-0.158,0.008-0.249,0.152-0.296,0.345
				s-0.122,0.639,0.284,0.699C14.3,49.621,14.482,49.015,14.39,48.694z"/>
		</g>
		<g>
			<path d="M14.876,35.926c0.037,0.008,22.053,1.879,24.92,1.523c1.792-0.223,7.403,0.122,9.678-0.604
				c1.574-0.502,0.267-1.897,0.267-2.781c0-3.384-10.98-15.989-18.564-21.622C17.824,2.526,5.413-0.446,2.292,1.62
				C2.292,1.62,1,2.217,1,4.473c0,2.255,0.326,1.15,0.598,1.899c0.142,0.391-0.447,1.693-0.236,2.29
				c0.319,0.903,2.628,5.545,4.063,7.207c1.435,1.662,2.272,4.273,2.631,5.579c0.358,1.306,2.631,9.378,3.109,9.971
				c0.479,0.594,0.957,1.899,1.077,2.493S13.204,35.804,14.876,35.926z"/>
			<path fill="#FFFFFF" d="M8.91,3.062C8.704,2.699,8.05,2.263,7.662,2.32S6.891,3.167,6.891,3.167s0.234,0.676,0.91,0.765
				C8.477,4.021,9.115,3.423,8.91,3.062z"/>
			<path fill="#FFFFFF" d="M6.618,4.939C6.4,4.717,5.746,4.539,5.375,4.667c-0.37,0.128-0.691,0.796-0.691,0.796
				s0.265,0.447,0.92,0.364S6.837,5.161,6.618,4.939z"/>
			<path fill="#FFFFFF" d="M5.928,8.06C5.621,7.878,4.949,7.832,4.686,8.039S4.477,8.991,4.477,8.991s0.463,0.401,1.002,0.182
				C6.017,8.953,6.235,8.242,5.928,8.06z"/>
			<path fill="#FFFFFF" d="M7.032,11.842c-0.252-0.149-0.805-0.188-1.022-0.017c-0.217,0.17-0.172,0.784-0.172,0.784
				s0.381,0.33,0.824,0.148C7.105,12.576,7.285,11.991,7.032,11.842z"/>
			<path fill="#FFFFFF" d="M13.826,32.667c-0.151-0.183-0.572-0.361-0.794-0.289c-0.222,0.072-0.377,0.555-0.377,0.555
				s0.196,0.356,0.599,0.336C13.657,33.25,13.978,32.849,13.826,32.667z"/>
			<path fill="#FFFFFF" d="M11.833,29.917c0.115-0.113,0.206-0.481,0.139-0.703s-0.416-0.447-0.416-0.447s-0.232,0.127-0.187,0.51
				S11.718,30.031,11.833,29.917z"/>
			<path fill="#FFFFFF" d="M10.91,27.007c0.125-0.12,0.227-0.506,0.157-0.738c-0.07-0.231-0.442-0.463-0.442-0.463
				s-0.251,0.136-0.207,0.537C10.462,26.744,10.785,27.127,10.91,27.007z"/>
			<path fill="#FFFFFF" d="M9.785,23.797c0.106-0.136,0.15-0.534,0.046-0.752S9.326,22.65,9.326,22.65s-0.228,0.171-0.125,0.562
				C9.304,23.602,9.679,23.934,9.785,23.797z"/>
			<path fill="#FFFFFF" d="M9.798,20.013c-0.084-0.215-0.396-0.504-0.601-0.501s-0.452,0.411-0.452,0.411s0.079,0.391,0.424,0.49
				C9.514,20.511,9.882,20.229,9.798,20.013z"/>
			<path fill="#FFFFFF" d="M8.176,17.842c-0.005-0.187-0.271-0.772-0.413-0.817C7.621,16.98,7.352,17.24,7.352,17.24
				s-0.04,0.322,0.173,0.479S8.182,18.029,8.176,17.842z"/>
			<path fill="#FFFFFF" d="M5.849,14.394c0.025,0.185,0.352,0.739,0.498,0.769s0.387-0.257,0.387-0.257s0.005-0.325-0.224-0.458
				S5.823,14.209,5.849,14.394z"/>
			<path fill="#FFFFFF" d="M4.188,12.643C4.209,12.826,4.5,13.371,4.633,13.4c0.132,0.028,0.352-0.258,0.352-0.258
				s0.007-0.321-0.199-0.451S4.167,12.46,4.188,12.643z"/>
			<path fill="#FFFFFF" d="M2.48,9.149c0.031,0.14,0.383,0.567,0.535,0.594C3.167,9.77,3.407,9.56,3.407,9.56
				S3.404,9.315,3.164,9.208C2.924,9.102,2.449,9.009,2.48,9.149z"/>
			<path fill="#FFFFFF" d="M3.27,5.572C3.151,5.489,2.601,5.41,2.471,5.492S2.307,5.889,2.307,5.889s0.155,0.1,0.418,0.097
				C3.165,5.981,3.388,5.654,3.27,5.572z"/>
			<path fill="#FFFFFF" d="M2.394,7.295c0.109,0.093,0.649,0.226,0.787,0.157c0.137-0.069,0.203-0.38,0.203-0.38
				S3.187,6.994,2.93,7.051C2.673,7.109,2.284,7.201,2.394,7.295z"/>
			<path fill="#FFFFFF" d="M2.948,3.69c0.116,0.089,0.713,0.187,0.873,0.105c0.16-0.083,0.257-0.413,0.257-0.413
				S3.862,3.315,3.569,3.395C3.276,3.474,2.831,3.6,2.948,3.69z"/>
			<path fill="#FFFFFF" d="M11.361,2.796c-0.139-0.115-1.341-0.736-1.743-0.807C9.215,1.918,8.605,2.063,8.605,2.063
				s0.362,0.465,1.006,0.644C10.256,2.886,11.63,3.019,11.361,2.796z"/>
			<path fill="#FFFFFF" d="M29.391,13.213c-0.099-0.16-1.082-1.216-1.456-1.452s-1.459-0.819-1.459-0.819s0.636,1,1.213,1.434
				C28.268,12.81,29.583,13.521,29.391,13.213z"/>
			<path fill="#FFFFFF" d="M23.143,8.749c-0.079-0.114-0.821-0.762-1.093-0.856c-0.272-0.094-1.052-0.275-1.052-0.275
				s0.502,0.71,0.926,0.92C22.348,8.747,23.295,8.969,23.143,8.749z"/>
			<path fill="#FFFFFF" d="M35.484,17.413c-0.03-0.091-0.396-0.648-0.557-0.753c-0.161-0.105-0.639-0.344-0.639-0.344
				s0.196,0.566,0.435,0.773C34.962,17.295,35.542,17.588,35.484,17.413z"/>
			<path fill="#FFFFFF" d="M29.115,12.071c-0.03-0.091-0.396-0.648-0.557-0.753s-0.639-0.344-0.639-0.344s0.196,0.566,0.435,0.773
				C28.594,11.953,29.174,12.246,29.115,12.071z"/>
			<path fill="#FFFFFF" d="M23.649,8.463c-0.03-0.091-0.396-0.648-0.557-0.754c-0.161-0.105-0.639-0.344-0.639-0.344
				s0.196,0.566,0.435,0.773C23.127,8.345,23.707,8.638,23.649,8.463z"/>
			<path fill="#FFFFFF" d="M4.431,2.518C4.364,2.396,3.896,2.089,3.733,2.102c-0.162,0.014-0.355,0.27-0.355,0.27
				S3.537,2.51,3.81,2.548C4.083,2.587,4.498,2.64,4.431,2.518z"/>
			<g>
				<linearGradient id="SVGID_11_" gradientUnits="userSpaceOnUse" x1="25.6665" y1="25.2046" x2="48.6279" y2="25.2046">
					<stop  offset="0.0056" style="stop-color:#005B97"/>
					<stop  offset="0.1348" style="stop-color:#0075BE"/>
					<stop  offset="0.4326" style="stop-color:#1E9CD7"/>
					<stop  offset="0.5351" style="stop-color:#47ACDE"/>
					<stop  offset="0.6934" style="stop-color:#80C2E7"/>
					<stop  offset="0.8294" style="stop-color:#A9D2EE"/>
					<stop  offset="0.9359" style="stop-color:#C3DCF2"/>
					<stop  offset="1" style="stop-color:#CCE0F4"/>
				</linearGradient>
				<path fill="url(#SVGID_11_)" d="M43.233,27.322c-3.478-4.016-11.997-10.287-13.701-10.851c-0.936-0.31-3.479-0.493-3.833,0.563
					c-0.355,1.057,2.343,4.087,3.124,4.792c0.781,0.704,6.602,4.861,8.589,6.271c1.988,1.409,10.01,5.777,10.364,5.989
					c0.355,0.211,0.852,0.07,0.852-0.493S45.101,29.479,43.233,27.322z"/>
				<linearGradient id="SVGID_12_" gradientUnits="userSpaceOnUse" x1="13.4077" y1="18.1299" x2="26.4819" y2="18.1299">
					<stop  offset="0.0056" style="stop-color:#005B97"/>
					<stop  offset="0.1348" style="stop-color:#0075BE"/>
					<stop  offset="0.4326" style="stop-color:#1E9CD7"/>
					<stop  offset="0.5351" style="stop-color:#47ACDE"/>
					<stop  offset="0.6934" style="stop-color:#80C2E7"/>
					<stop  offset="0.8294" style="stop-color:#A9D2EE"/>
					<stop  offset="0.9359" style="stop-color:#C3DCF2"/>
					<stop  offset="1" style="stop-color:#CCE0F4"/>
				</linearGradient>
				<path fill="url(#SVGID_12_)" d="M17.251,19.995c0.994,0.705,9.157,1.101,9.229,0.845c0.071-0.255-1.636-3.206-2.271-3.664
					c-0.636-0.457-4.898-1.902-6.602-1.832c-1.704,0.071-4.384,2.075-4.188,2.255s0.781,0.211,0.781,0.211
					S16.258,19.29,17.251,19.995z"/>
				<linearGradient id="SVGID_13_" gradientUnits="userSpaceOnUse" x1="14.0459" y1="24.1602" x2="32.7622" y2="24.1602">
					<stop  offset="0.0056" style="stop-color:#005B97"/>
					<stop  offset="0.1348" style="stop-color:#0075BE"/>
					<stop  offset="0.4326" style="stop-color:#1E9CD7"/>
					<stop  offset="0.5351" style="stop-color:#47ACDE"/>
					<stop  offset="0.6934" style="stop-color:#80C2E7"/>
					<stop  offset="0.8294" style="stop-color:#A9D2EE"/>
					<stop  offset="0.9359" style="stop-color:#C3DCF2"/>
					<stop  offset="1" style="stop-color:#CCE0F4"/>
				</linearGradient>
				<path fill="url(#SVGID_13_)" d="M17.146,26.834c0.673,0.401,16.012-0.222,15.608-0.667c-0.403-0.445-4.485-3.828-5.561-4.407
					c-1.077-0.579-11.168-0.489-11.706,0c-0.539,0.49-0.539,1.692-0.539,1.692s-0.986,0.49-0.897,0.712
					c0.09,0.223,0.942,0.445,0.942,0.445S16.474,26.434,17.146,26.834z"/>
				<linearGradient id="SVGID_14_" gradientUnits="userSpaceOnUse" x1="14.4497" y1="30.6279" x2="46.6182" y2="30.6279">
					<stop  offset="0.0056" style="stop-color:#005B97"/>
					<stop  offset="0.1348" style="stop-color:#0075BE"/>
					<stop  offset="0.4326" style="stop-color:#1E9CD7"/>
					<stop  offset="0.5351" style="stop-color:#47ACDE"/>
					<stop  offset="0.6934" style="stop-color:#80C2E7"/>
					<stop  offset="0.8294" style="stop-color:#A9D2EE"/>
					<stop  offset="0.9359" style="stop-color:#C3DCF2"/>
					<stop  offset="1" style="stop-color:#CCE0F4"/>
				</linearGradient>
				<path fill="url(#SVGID_14_)" d="M46.614,34.008c-0.403-0.445-11.617-6.15-12.693-6.729c-1.077-0.579-16.909,0.445-17.447,0.935
					c-0.538,0.49-1.121,1.781-1.121,1.781s-0.987,0.49-0.897,0.712s0.942,0.445,0.942,0.445s0.673,1.78,1.346,2.181
					C17.416,33.734,47.018,34.453,46.614,34.008z"/>
				<linearGradient id="SVGID_15_" gradientUnits="userSpaceOnUse" x1="36.1714" y1="35.1274" x2="47.5269" y2="35.1274">
					<stop  offset="0.0056" style="stop-color:#005B97"/>
					<stop  offset="0.1348" style="stop-color:#0075BE"/>
					<stop  offset="0.4326" style="stop-color:#1E9CD7"/>
					<stop  offset="0.5351" style="stop-color:#47ACDE"/>
					<stop  offset="0.6934" style="stop-color:#80C2E7"/>
					<stop  offset="0.8294" style="stop-color:#A9D2EE"/>
					<stop  offset="0.9359" style="stop-color:#C3DCF2"/>
					<stop  offset="1" style="stop-color:#CCE0F4"/>
				</linearGradient>
				<path fill="url(#SVGID_15_)" d="M46.473,34.577c-0.479-0.047-10.764,0.333-10.286,0.57c0.478,0.237,4.114,0.427,5.214,0.522
					c1.101,0.095,6.219-0.332,6.124-0.665S46.952,34.625,46.473,34.577z"/>
				<linearGradient id="SVGID_16_" gradientUnits="userSpaceOnUse" x1="20.5898" y1="14.501" x2="24.6353" y2="14.501">
					<stop  offset="0.0056" style="stop-color:#005B97"/>
					<stop  offset="0.1348" style="stop-color:#0075BE"/>
					<stop  offset="0.4326" style="stop-color:#1E9CD7"/>
					<stop  offset="0.5351" style="stop-color:#47ACDE"/>
					<stop  offset="0.6934" style="stop-color:#80C2E7"/>
					<stop  offset="0.8294" style="stop-color:#A9D2EE"/>
					<stop  offset="0.9359" style="stop-color:#C3DCF2"/>
					<stop  offset="1" style="stop-color:#CCE0F4"/>
				</linearGradient>
				<path fill="url(#SVGID_16_)" d="M24.218,15.605c0.4-0.061,0.554-1.069,0.277-1.405s-2.4-0.794-2.738-0.794
					s-1.015-0.092-1.139,0.214c-0.123,0.305,0.185,0.641,0.4,0.855S23.818,15.667,24.218,15.605z"/>
				<linearGradient id="SVGID_17_" gradientUnits="userSpaceOnUse" x1="23.4761" y1="12.5068" x2="26.8901" y2="12.5068">
					<stop  offset="0.0056" style="stop-color:#005B97"/>
					<stop  offset="0.1348" style="stop-color:#0075BE"/>
					<stop  offset="0.4326" style="stop-color:#1E9CD7"/>
					<stop  offset="0.5351" style="stop-color:#47ACDE"/>
					<stop  offset="0.6934" style="stop-color:#80C2E7"/>
					<stop  offset="0.8294" style="stop-color:#A9D2EE"/>
					<stop  offset="0.9359" style="stop-color:#C3DCF2"/>
					<stop  offset="1" style="stop-color:#CCE0F4"/>
				</linearGradient>
				<path fill="url(#SVGID_17_)" d="M26.557,13.987c0.247-0.092,0.431-0.366,0.277-1.008c-0.154-0.641-3.015-2.09-3.169-1.954
					c-0.277,0.244-0.215,1.771-0.031,2.168S26.311,14.079,26.557,13.987z"/>
				<linearGradient id="SVGID_18_" gradientUnits="userSpaceOnUse" x1="16.0928" y1="9.4775" x2="19.4136" y2="9.4775">
					<stop  offset="0.0056" style="stop-color:#005B97"/>
					<stop  offset="0.1348" style="stop-color:#0075BE"/>
					<stop  offset="0.4326" style="stop-color:#1E9CD7"/>
					<stop  offset="0.5351" style="stop-color:#47ACDE"/>
					<stop  offset="0.6934" style="stop-color:#80C2E7"/>
					<stop  offset="0.8294" style="stop-color:#A9D2EE"/>
					<stop  offset="0.9359" style="stop-color:#C3DCF2"/>
					<stop  offset="1" style="stop-color:#CCE0F4"/>
				</linearGradient>
				<path fill="url(#SVGID_18_)" d="M17.099,10.839c1.208,0.43,2.508-0.553,2.291-1.26s-1.083-1.506-1.827-1.567
					s-1.455,1.199-1.455,1.199S15.891,10.409,17.099,10.839z"/>
				<linearGradient id="SVGID_19_" gradientUnits="userSpaceOnUse" x1="11.9282" y1="12.7373" x2="15.7676" y2="12.7373">
					<stop  offset="0.0056" style="stop-color:#005B97"/>
					<stop  offset="0.1348" style="stop-color:#0075BE"/>
					<stop  offset="0.4326" style="stop-color:#1E9CD7"/>
					<stop  offset="0.5351" style="stop-color:#47ACDE"/>
					<stop  offset="0.6934" style="stop-color:#80C2E7"/>
					<stop  offset="0.8294" style="stop-color:#A9D2EE"/>
					<stop  offset="0.9359" style="stop-color:#C3DCF2"/>
					<stop  offset="1" style="stop-color:#CCE0F4"/>
				</linearGradient>
				<path fill="url(#SVGID_19_)" d="M13.112,11.379c-0.705,0.242-1.184,1.765-1.184,1.765s0.631,1.098,1.911,1.007
					s2.29-1.369,1.804-1.929C15.157,11.663,13.816,11.137,13.112,11.379z"/>
				<linearGradient id="SVGID_20_" gradientUnits="userSpaceOnUse" x1="9.5103" y1="16.3066" x2="11.4121" y2="16.3066">
					<stop  offset="0.0056" style="stop-color:#005B97"/>
					<stop  offset="0.1348" style="stop-color:#0075BE"/>
					<stop  offset="0.4326" style="stop-color:#1E9CD7"/>
					<stop  offset="0.5351" style="stop-color:#47ACDE"/>
					<stop  offset="0.6934" style="stop-color:#80C2E7"/>
					<stop  offset="0.8294" style="stop-color:#A9D2EE"/>
					<stop  offset="0.9359" style="stop-color:#C3DCF2"/>
					<stop  offset="1" style="stop-color:#CCE0F4"/>
				</linearGradient>
				<path fill="url(#SVGID_20_)" d="M11.41,16.63c-0.048-0.386-0.48-1.006-0.86-1.105c-0.38-0.099-1.039,0.429-1.039,0.429
					s-0.047,0.664,0.54,0.996C10.639,17.282,11.458,17.016,11.41,16.63z"/>
				<linearGradient id="SVGID_21_" gradientUnits="userSpaceOnUse" x1="11.7148" y1="19.4492" x2="13.2529" y2="19.4492">
					<stop  offset="0.0056" style="stop-color:#005B97"/>
					<stop  offset="0.1348" style="stop-color:#0075BE"/>
					<stop  offset="0.4326" style="stop-color:#1E9CD7"/>
					<stop  offset="0.5351" style="stop-color:#47ACDE"/>
					<stop  offset="0.6934" style="stop-color:#80C2E7"/>
					<stop  offset="0.8294" style="stop-color:#A9D2EE"/>
					<stop  offset="0.9359" style="stop-color:#C3DCF2"/>
					<stop  offset="1" style="stop-color:#CCE0F4"/>
				</linearGradient>
				<path fill="url(#SVGID_21_)" d="M12.26,18.897c-0.288,0.065-0.545,0.64-0.545,0.64s0.199,0.455,0.707,0.474
					c0.508,0.018,0.963-0.439,0.797-0.678C13.052,19.094,12.549,18.833,12.26,18.897z"/>
				<linearGradient id="SVGID_22_" gradientUnits="userSpaceOnUse" x1="11.0762" y1="22.2764" x2="12.6333" y2="22.2764">
					<stop  offset="0.0056" style="stop-color:#005B97"/>
					<stop  offset="0.1348" style="stop-color:#0075BE"/>
					<stop  offset="0.4326" style="stop-color:#1E9CD7"/>
					<stop  offset="0.5351" style="stop-color:#47ACDE"/>
					<stop  offset="0.6934" style="stop-color:#80C2E7"/>
					<stop  offset="0.8294" style="stop-color:#A9D2EE"/>
					<stop  offset="0.9359" style="stop-color:#C3DCF2"/>
					<stop  offset="1" style="stop-color:#CCE0F4"/>
				</linearGradient>
				<path fill="url(#SVGID_22_)" d="M12.592,22.181c-0.18-0.283-0.704-0.607-0.993-0.546c-0.289,0.061-0.523,0.71-0.523,0.71
					s0.224,0.534,0.74,0.579C12.332,22.967,12.772,22.463,12.592,22.181z"/>
				<linearGradient id="SVGID_23_" gradientUnits="userSpaceOnUse" x1="12.2803" y1="26.1655" x2="13.3604" y2="26.1655">
					<stop  offset="0.0056" style="stop-color:#005B97"/>
					<stop  offset="0.1348" style="stop-color:#0075BE"/>
					<stop  offset="0.4326" style="stop-color:#1E9CD7"/>
					<stop  offset="0.5351" style="stop-color:#47ACDE"/>
					<stop  offset="0.6934" style="stop-color:#80C2E7"/>
					<stop  offset="0.8294" style="stop-color:#A9D2EE"/>
					<stop  offset="0.9359" style="stop-color:#C3DCF2"/>
					<stop  offset="1" style="stop-color:#CCE0F4"/>
				</linearGradient>
				<path fill="url(#SVGID_23_)" d="M12.936,25.692c-0.217-0.085-0.647,0.188-0.647,0.188s-0.079,0.398,0.244,0.639
					c0.322,0.24,0.827,0.136,0.828-0.101S13.153,25.778,12.936,25.692z"/>
				<linearGradient id="SVGID_24_" gradientUnits="userSpaceOnUse" x1="7.814" y1="6.2915" x2="14.9937" y2="6.2915">
					<stop  offset="0.0056" style="stop-color:#005B97"/>
					<stop  offset="0.1348" style="stop-color:#0075BE"/>
					<stop  offset="0.4326" style="stop-color:#1E9CD7"/>
					<stop  offset="0.5351" style="stop-color:#47ACDE"/>
					<stop  offset="0.6934" style="stop-color:#80C2E7"/>
					<stop  offset="0.8294" style="stop-color:#A9D2EE"/>
					<stop  offset="0.9359" style="stop-color:#C3DCF2"/>
					<stop  offset="1" style="stop-color:#CCE0F4"/>
				</linearGradient>
				<path fill="url(#SVGID_24_)" d="M11.884,7.144c1.375,0.119,3.109-0.119,3.109-0.475s-2.332-1.187-3.229-1.247
					c-0.897-0.059-3.828,0.06-3.947,0.534C7.698,6.432,10.509,7.025,11.884,7.144z"/>
				<linearGradient id="SVGID_25_" gradientUnits="userSpaceOnUse" x1="7.0366" y1="9.4023" x2="14.6948" y2="9.4023">
					<stop  offset="0.0056" style="stop-color:#005B97"/>
					<stop  offset="0.1348" style="stop-color:#0075BE"/>
					<stop  offset="0.4326" style="stop-color:#1E9CD7"/>
					<stop  offset="0.5351" style="stop-color:#47ACDE"/>
					<stop  offset="0.6934" style="stop-color:#80C2E7"/>
					<stop  offset="0.8294" style="stop-color:#A9D2EE"/>
					<stop  offset="0.9359" style="stop-color:#C3DCF2"/>
					<stop  offset="1" style="stop-color:#CCE0F4"/>
				</linearGradient>
				<path fill="url(#SVGID_25_)" d="M14.695,9.815c0-0.356-2.341-1.105-3.229-1.247C9.971,8.331,7.16,8.628,7.04,9.103
					s3.169,1.068,4.545,1.187S14.695,10.171,14.695,9.815z"/>
			</g>
		</g>
	</g>
	<g>
		<g>
			<path d="M50.29,39.89c0,0,0.385,6.98,0.674,8.128c0.289,1.147,2.216,6.598,2.794,7.459c0.579,0.86,7.13,10.041,7.708,10.806
				s1.06,2.391,2.794,2.582s5.492,0.287,6.455-0.478c0.964-0.765,1.445-1.052,1.445-1.052s3.662-0.382,4.721-1.721
				c1.06-1.339,3.854-3.155,4.432-3.825c0.578-0.669,2.987-2.582,3.854-4.208c0.867-1.625,1.927-2.677,2.023-5.164
				c0.096-2.487-0.386-6.79-1.542-8.511c-1.156-1.721-4.432-4.781-6.263-5.929s-6.552-2.008-8.575-2.964
				c-0.984-0.489-1.721-0.914-2.023-0.957s-13.904,0.85-16.216,1.901C50.26,37.01,50.29,39.89,50.29,39.89z"/>
			<g>
				<linearGradient id="SVGID_26_" gradientUnits="userSpaceOnUse" x1="53.1621" y1="44.6255" x2="72.5376" y2="44.6255">
					<stop  offset="0" style="stop-color:#CCE0F4"/>
					<stop  offset="0.0641" style="stop-color:#C3DCF2"/>
					<stop  offset="0.1706" style="stop-color:#A9D2EE"/>
					<stop  offset="0.3066" style="stop-color:#80C2E7"/>
					<stop  offset="0.4649" style="stop-color:#47ACDE"/>
					<stop  offset="0.5674" style="stop-color:#1E9CD7"/>
					<stop  offset="0.8652" style="stop-color:#0075BE"/>
					<stop  offset="0.9944" style="stop-color:#005B97"/>
				</linearGradient>
				<path fill="url(#SVGID_26_)" d="M64.106,40.055c0,0-8.611-1.691-9.15-1.424c-0.538,0.267-1.788,0.356-1.794,0.801
					c-0.009,0.649,9.805,8.365,10.433,8.632s6.431,2.585,7.148,2.585s1.794-0.623,1.794-0.623s-1.704-3.205-2.242-3.829
					c-0.539-0.623-1.615-0.89-2.063-1.246c-0.448-0.356-1.256-1.158-1.525-1.603c-0.269-0.445-0.359-1.603-0.359-1.603
					S64.913,40.411,64.106,40.055z"/>
				<linearGradient id="SVGID_27_" gradientUnits="userSpaceOnUse" x1="52.4839" y1="51.8838" x2="69.2852" y2="51.8838">
					<stop  offset="0" style="stop-color:#CCE0F4"/>
					<stop  offset="0.0641" style="stop-color:#C3DCF2"/>
					<stop  offset="0.1706" style="stop-color:#A9D2EE"/>
					<stop  offset="0.3066" style="stop-color:#80C2E7"/>
					<stop  offset="0.4649" style="stop-color:#47ACDE"/>
					<stop  offset="0.5674" style="stop-color:#1E9CD7"/>
					<stop  offset="0.8652" style="stop-color:#0075BE"/>
					<stop  offset="0.9944" style="stop-color:#005B97"/>
				</linearGradient>
				<path fill="url(#SVGID_27_)" d="M52.653,39.981c0,0,9.792,7.585,10.642,8.43c0,0,2.075,3.652,2.246,4.369
					c0.17,0.718,0.17,1.689,0.255,1.9c0.085,0.211,0.68,1.013,0.851,1.098c0.17,0.084,0.681,0.296,0.893,0.464
					c0.213,0.169,1.787,3.546,1.744,4.475s-0.383,1.984-0.681,2.195c-0.298,0.211-0.766,0.169-0.766,0.169s-0.127,0.169-0.383,0.422
					c-0.255,0.253-0.681,0.464-1.021,0.042c-0.34-0.422-2.807-4.011-3.19-4.939s-2.68-5.277-3.105-5.995s-4.564-6.255-5.288-6.804
					c-0.723-0.549-1.221-1.555-1.348-1.935C53.376,43.493,52.016,40.361,52.653,39.981z"/>
				<linearGradient id="SVGID_28_" gradientUnits="userSpaceOnUse" x1="64.4004" y1="55.311" x2="75.5425" y2="55.311">
					<stop  offset="0" style="stop-color:#CCE0F4"/>
					<stop  offset="0.0641" style="stop-color:#C3DCF2"/>
					<stop  offset="0.1706" style="stop-color:#A9D2EE"/>
					<stop  offset="0.3066" style="stop-color:#80C2E7"/>
					<stop  offset="0.4649" style="stop-color:#47ACDE"/>
					<stop  offset="0.5674" style="stop-color:#1E9CD7"/>
					<stop  offset="0.8652" style="stop-color:#0075BE"/>
					<stop  offset="0.9944" style="stop-color:#005B97"/>
				</linearGradient>
				<path fill="url(#SVGID_28_)" d="M64.42,49.047c-0.207,0.087,1.3,3.116,1.749,3.65c0.448,0.534,1.121,1.069,1.48,1.425
					s0.314,1.335,0.359,1.691c0.045,0.356,1.884,3.873,2.018,4.541c0.135,0.668,0.27,1.068,0.763,1.113s1.211-0.133,1.346-0.178
					c0.134-0.044,1.031,0.4,1.211,0.267c0.179-0.134,1.48-1.603,1.839-1.781c0.358-0.178,0.448-0.356,0.269-0.846
					c-0.18-0.49-1.974-3.695-2.557-4.273s-1.794-2.894-1.974-3.116C70.744,51.317,64.734,48.913,64.42,49.047z"/>
				<linearGradient id="SVGID_29_" gradientUnits="userSpaceOnUse" x1="71.5293" y1="54.543" x2="79.8486" y2="54.543">
					<stop  offset="0" style="stop-color:#CCE0F4"/>
					<stop  offset="0.0641" style="stop-color:#C3DCF2"/>
					<stop  offset="0.1706" style="stop-color:#A9D2EE"/>
					<stop  offset="0.3066" style="stop-color:#80C2E7"/>
					<stop  offset="0.4649" style="stop-color:#47ACDE"/>
					<stop  offset="0.5674" style="stop-color:#1E9CD7"/>
					<stop  offset="0.8652" style="stop-color:#0075BE"/>
					<stop  offset="0.9944" style="stop-color:#005B97"/>
				</linearGradient>
				<path fill="url(#SVGID_29_)" d="M71.551,51.184c0.18-0.312,0.987-0.89,1.794-0.668c0.807,0.223,4.126,2.092,4.844,2.983
					c0.718,0.89,1.66,1.157,1.66,1.825c0,0.668-0.628,1.825-0.853,2.137c-0.224,0.312-0.403,0.712-0.403,0.712
					s-0.987-0.044-1.346,0.089c-0.359,0.134,0,0.312-0.404,0.356s-1.659-0.445-2.018-1.425c-0.359-0.979-1.077-2.404-1.166-2.626
					c-0.09-0.223-0.763-0.979-1.032-1.113C72.358,53.32,71.372,51.495,71.551,51.184z"/>
				<linearGradient id="SVGID_30_" gradientUnits="userSpaceOnUse" x1="70.3618" y1="50.0469" x2="82.7666" y2="50.0469">
					<stop  offset="0" style="stop-color:#CCE0F4"/>
					<stop  offset="0.0641" style="stop-color:#C3DCF2"/>
					<stop  offset="0.1706" style="stop-color:#A9D2EE"/>
					<stop  offset="0.3066" style="stop-color:#80C2E7"/>
					<stop  offset="0.4649" style="stop-color:#47ACDE"/>
					<stop  offset="0.5674" style="stop-color:#1E9CD7"/>
					<stop  offset="0.8652" style="stop-color:#0075BE"/>
					<stop  offset="0.9944" style="stop-color:#005B97"/>
				</linearGradient>
				<path fill="url(#SVGID_30_)" d="M70.385,45.619C70.161,45.708,71.641,46.643,72,47.4s0.852,2.226,1.256,2.315
					c0.404,0.089,1.974,0.623,2.243,0.712s2.377,1.736,2.826,2.137c0.448,0.4,1.839,1.958,2.422,1.914s1.166-0.223,1.39-0.712
					c0.224-0.49,0.583-0.757,0.628-1.736s-0.404-1.647-0.583-1.736c-0.18-0.089-3.364-1.558-3.768-1.825s-1.345-0.712-2.108-0.712
					s-0.897,0-1.839-0.49S70.609,45.53,70.385,45.619z"/>
				<linearGradient id="SVGID_31_" gradientUnits="userSpaceOnUse" x1="66.9395" y1="45.5234" x2="82.3608" y2="45.5234">
					<stop  offset="0" style="stop-color:#CCE0F4"/>
					<stop  offset="0.0641" style="stop-color:#C3DCF2"/>
					<stop  offset="0.1706" style="stop-color:#A9D2EE"/>
					<stop  offset="0.3066" style="stop-color:#80C2E7"/>
					<stop  offset="0.4649" style="stop-color:#47ACDE"/>
					<stop  offset="0.5674" style="stop-color:#1E9CD7"/>
					<stop  offset="0.8652" style="stop-color:#0075BE"/>
					<stop  offset="0.9944" style="stop-color:#005B97"/>
				</linearGradient>
				<path fill="url(#SVGID_31_)" d="M82.271,49.091c-0.27,0.445-0.897,0.044-1.525-0.223s-1.256-0.445-1.884-0.712
					s-2.153-0.624-2.602-1.068c-0.448-0.445-1.301-0.534-1.525-0.534s-1.345-0.178-1.48-0.267c-0.135-0.089-2.602-1.202-3.05-1.247
					c-0.449-0.044-0.852-0.089-1.301-0.312s-1.525-0.757-1.659-1.113c-0.135-0.356-0.404-1.469-0.27-1.647
					c0.135-0.178,2.333-0.268,2.646-0.178c0.314,0.089,2.96,0.667,3.768,0.801c0.807,0.133,2.152,0.534,2.422,0.623
					c0.269,0.089,3.184,0.846,3.588,0.846s1.974,1.068,2.153,1.647c0.179,0.579,0.314,1.202,0.448,1.647
					C82.136,47.8,82.54,48.646,82.271,49.091z"/>
				<linearGradient id="SVGID_32_" gradientUnits="userSpaceOnUse" x1="64.6636" y1="40.6372" x2="79.1309" y2="40.6372">
					<stop  offset="0" style="stop-color:#CCE0F4"/>
					<stop  offset="0.0641" style="stop-color:#C3DCF2"/>
					<stop  offset="0.1706" style="stop-color:#A9D2EE"/>
					<stop  offset="0.3066" style="stop-color:#80C2E7"/>
					<stop  offset="0.4649" style="stop-color:#47ACDE"/>
					<stop  offset="0.5674" style="stop-color:#1E9CD7"/>
					<stop  offset="0.8652" style="stop-color:#0075BE"/>
					<stop  offset="0.9944" style="stop-color:#005B97"/>
				</linearGradient>
				<path fill="url(#SVGID_32_)" d="M64.689,39.699c-0.269,0.312,1.659,1.469,2.243,1.514c0.583,0.044,2.915,0.267,3.229,0.267
					s3.588,0.534,3.947,0.623s2.691,1.113,3.409,0.979c0.718-0.134,1.615,0.044,1.615-0.534s-0.718-1.736-1.077-2.137
					c-0.358-0.401-3.543-1.87-4.216-2.003c-0.673-0.133-3.136-0.174-3.947-0.223C68.412,38.096,64.958,39.387,64.689,39.699z"/>
				<linearGradient id="SVGID_33_" gradientUnits="userSpaceOnUse" x1="54.9106" y1="37.7046" x2="69.9409" y2="37.7046">
					<stop  offset="0" style="stop-color:#CCE0F4"/>
					<stop  offset="0.0641" style="stop-color:#C3DCF2"/>
					<stop  offset="0.1706" style="stop-color:#A9D2EE"/>
					<stop  offset="0.3066" style="stop-color:#80C2E7"/>
					<stop  offset="0.4649" style="stop-color:#47ACDE"/>
					<stop  offset="0.5674" style="stop-color:#1E9CD7"/>
					<stop  offset="0.8652" style="stop-color:#0075BE"/>
					<stop  offset="0.9944" style="stop-color:#005B97"/>
				</linearGradient>
				<path fill="url(#SVGID_33_)" d="M69.937,37.266c0.179,0.445-5.113,1.943-5.696,2.077c-0.583,0.133-1.973,0.044-2.556-0.223
					c-0.336-0.154-1.607-0.218-2.415-0.307s-3.857-0.495-4.261-0.673c-0.404-0.178,0.528-0.746,1.158-1.024
					c0.584-0.257,2.943-0.632,3.885-0.632s3.356-0.169,4.074-0.436S69.757,36.821,69.937,37.266z"/>
				<linearGradient id="SVGID_34_" gradientUnits="userSpaceOnUse" x1="52.0737" y1="53.3755" x2="65.2441" y2="53.3755">
					<stop  offset="0" style="stop-color:#CCE0F4"/>
					<stop  offset="0.0641" style="stop-color:#C3DCF2"/>
					<stop  offset="0.1706" style="stop-color:#A9D2EE"/>
					<stop  offset="0.3066" style="stop-color:#80C2E7"/>
					<stop  offset="0.4649" style="stop-color:#47ACDE"/>
					<stop  offset="0.5674" style="stop-color:#1E9CD7"/>
					<stop  offset="0.8652" style="stop-color:#0075BE"/>
					<stop  offset="0.9944" style="stop-color:#005B97"/>
				</linearGradient>
				<path fill="url(#SVGID_34_)" d="M65.241,63.547c-0.064,0.48-0.71,0.929-1.291,0.993s-0.323,0.48-0.323,0.577
					c0,0.096-0.064,0.096-0.387-0.064c-0.323-0.161-0.613-0.192-0.904-0.256s-1.517-0.865-1.808-1.378s-2.098-4.677-2.615-5.734
					c-0.517-1.058-2.356-5.19-2.808-5.895c-0.452-0.705-2.841-5.351-2.841-6.248s-0.355-3.973-0.097-3.973s1.033,2.595,1.388,3.204
					c0.355,0.609,1.969,2.723,2.518,3.268c0.549,0.544,2.485,3.14,2.873,3.813c0.387,0.673,1.904,2.916,2.195,3.78
					c0.291,0.865,2.178,4.222,2.647,4.998C64.37,61.592,65.306,63.066,65.241,63.547z"/>
				<linearGradient id="SVGID_35_" gradientUnits="userSpaceOnUse" x1="51.3809" y1="52.5137" x2="59.6563" y2="52.5137">
					<stop  offset="0" style="stop-color:#CCE0F4"/>
					<stop  offset="0.0641" style="stop-color:#C3DCF2"/>
					<stop  offset="0.1706" style="stop-color:#A9D2EE"/>
					<stop  offset="0.3066" style="stop-color:#80C2E7"/>
					<stop  offset="0.4649" style="stop-color:#47ACDE"/>
					<stop  offset="0.5674" style="stop-color:#1E9CD7"/>
					<stop  offset="0.8652" style="stop-color:#0075BE"/>
					<stop  offset="0.9944" style="stop-color:#005B97"/>
				</linearGradient>
				<path fill="url(#SVGID_35_)" d="M51.595,42.432c-0.218,0-0.306,4.51-0.087,5.42c0.218,0.91,1.136,4.119,1.311,4.596
					s0.83,2.255,1.092,2.645c0.262,0.391,1.617,1.908,1.835,2.298c0.219,0.391,2.097,2.992,2.316,3.382
					c0.218,0.391,1.354,1.865,1.573,1.821c0.219-0.043-1.223-2.428-1.617-2.992c-0.393-0.564-1.442-3.686-1.704-4.207
					c-0.262-0.521-1.66-3.599-1.835-3.902c-0.175-0.304-1.966-4.163-2.098-4.336c-0.131-0.174-0.568-2.082-0.568-2.472
					C51.813,44.296,51.813,42.432,51.595,42.432z"/>
			</g>
			<path fill="#FFFFFF" d="M64.228,66.043c-0.034,0.144-0.946,0.28-1.245,0.14c-0.299-0.14-0.996-0.233-0.996-0.233
				s-0.448-0.513-0.299-0.653c0.149-0.14,1.045,0,1.195,0S64.327,65.624,64.228,66.043z"/>
			<path fill="#FFFFFF" d="M64.791,66.024c-0.111-0.143,0.224-0.72,0.498-0.749c0.274-0.029,0.533-0.306,0.706-0.299
				c0.172,0.007,0.681,0.221,0.73,0.418c0.05,0.197-0.522,0.526-0.597,0.602C66.052,66.072,65.115,66.439,64.791,66.024z"/>
			<path fill="#FFFFFF" d="M69.161,68.015c-0.096-0.082,0.059-0.539,0.244-0.603c0.186-0.064,0.328-0.3,0.447-0.323
				c0.12-0.023,0.5,0.044,0.561,0.173c0.061,0.129-0.291,0.453-0.333,0.517C70.04,67.844,69.44,68.253,69.161,68.015z"/>
			<path fill="#FFFFFF" d="M68.726,65.384c-0.13,0.142-0.718,0.423-0.852,0.334c-0.135-0.089,0.202-0.69,0.247-0.891
				c0.045-0.2,0.179-0.646,0.561-0.49S68.95,65.139,68.726,65.384z"/>
			<path fill="#FFFFFF" d="M66.458,68.176c-0.161-0.036-0.539-0.301-0.476-0.406c0.063-0.105,0.707-0.08,0.91-0.111
				c0.203-0.031,0.66-0.08,0.576,0.189C67.384,68.118,66.736,68.238,66.458,68.176z"/>
			<path fill="#FFFFFF" d="M70.066,63.132c0.125-0.098,0.29,0.055,0.381,0.149c0.092,0.094,0.076,0.244,0.008,0.403
				c-0.067,0.159-0.245,0.507-0.521,0.321C69.658,63.818,69.85,63.301,70.066,63.132z"/>
			<path fill="#FFFFFF" d="M65.211,67.986c0.127,0.1-0.033,0.225-0.132,0.295c-0.099,0.07-0.274,0.055-0.466-0.001
				s-0.615-0.2-0.429-0.413C64.371,67.655,64.992,67.814,65.211,67.986z"/>
			<path fill="#FFFFFF" d="M71.297,65.623c0.219-0.022,0.29,0.276,0.324,0.453c0.034,0.177-0.1,0.339-0.299,0.474
				s-0.669,0.41-0.844-0.01C70.304,66.12,70.92,65.66,71.297,65.623z"/>
			<path fill="#FFFFFF" d="M78.34,62.822c-0.122-0.035-0.161-0.484-0.015-0.607s0.184-0.377,0.285-0.44
				c0.102-0.063,0.48-0.145,0.588-0.056c0.108,0.089-0.088,0.495-0.101,0.565S78.694,62.925,78.34,62.822z"/>
			<path fill="#FFFFFF" d="M76.063,64.952c-0.146,0.078-0.607,0.137-0.628,0.025c-0.021-0.112,0.485-0.507,0.619-0.658
				c0.133-0.151,0.449-0.477,0.562-0.238S76.314,64.817,76.063,64.952z"/>
			<path fill="#FFFFFF" d="M74.014,65.251c0.157,0.039,0.06,0.205-0.003,0.302c-0.064,0.096-0.232,0.147-0.433,0.169
				c-0.2,0.022-0.649,0.052-0.562-0.198C73.104,65.274,73.743,65.184,74.014,65.251z"/>
			<path fill="#FFFFFF" d="M81.237,59.594c0.201-0.072,0.419,0.148,0.541,0.281c0.121,0.133,0.072,0.296-0.053,0.454
				c-0.125,0.158-0.443,0.496-0.822,0.204C80.523,60.242,80.89,59.719,81.237,59.594z"/>
			<path fill="#FFFFFF" d="M75.721,61.589c0.15-0.071,0.298,0.104,0.379,0.21s0.038,0.247-0.062,0.387
				c-0.1,0.14-0.349,0.442-0.61,0.214C75.167,62.174,75.461,61.712,75.721,61.589z"/>
			<path fill="#FFFFFF" d="M72.434,63.25c0.107-0.04,0.222,0.079,0.286,0.15c0.064,0.071,0.038,0.16-0.03,0.247
				c-0.068,0.086-0.238,0.271-0.438,0.115C72.051,63.605,72.249,63.32,72.434,63.25z"/>
			<path fill="#FFFFFF" d="M80.689,58.027c0.107-0.04,0.222,0.079,0.286,0.15c0.063,0.072,0.037,0.16-0.03,0.247
				c-0.067,0.086-0.238,0.271-0.438,0.115S80.504,58.097,80.689,58.027z"/>
			<path fill="#FFFFFF" d="M83.97,46.962c0.043-0.105,0.209-0.107,0.305-0.104c0.096,0.003,0.144,0.083,0.161,0.19
				c0.018,0.108,0.037,0.358-0.215,0.396C83.969,47.482,83.895,47.144,83.97,46.962z"/>
			<path fill="#FFFFFF" d="M73.162,36.661c-0.03-0.122,0.126-0.153,0.22-0.167c0.093-0.014,0.193,0.064,0.283,0.179
				s0.279,0.382,0.065,0.468C73.516,37.226,73.213,36.872,73.162,36.661z"/>
			<path fill="#FFFFFF" d="M85.912,52.406c-0.103,0.016-0.325-0.387-0.272-0.56c0.053-0.172-0.03-0.424,0.017-0.523
				c0.046-0.1,0.285-0.325,0.401-0.285c0.116,0.04,0.148,0.496,0.17,0.566S86.211,52.361,85.912,52.406z"/>
			<path fill="#FFFFFF" d="M84.983,45.68c-0.087,0.057-0.458-0.217-0.483-0.396c-0.025-0.179-0.206-0.373-0.205-0.482
				c0-0.109,0.122-0.414,0.245-0.425s0.344,0.389,0.393,0.444C84.981,44.877,85.236,45.516,84.983,45.68z"/>
			<path fill="#FFFFFF" d="M77.633,38.081c-0.028,0.109-0.646,0.171-0.843,0.049c-0.196-0.121-0.556-0.14-0.662-0.226
				c-0.106-0.086-0.284-0.416-0.179-0.516c0.105-0.101,0.704,0.049,0.804,0.057C76.854,37.451,77.714,37.763,77.633,38.081z"/>
			<path fill="#FFFFFF" d="M69.893,35.409c-0.051,0.101-0.668,0.028-0.833-0.133c-0.165-0.161-0.513-0.256-0.597-0.363
				s-0.187-0.467-0.062-0.542c0.125-0.076,0.676,0.2,0.773,0.228S70.042,35.117,69.893,35.409z"/>
			<path fill="#FFFFFF" d="M70.895,35.618c0.029-0.112,0.537-0.16,0.688-0.03c0.152,0.13,0.444,0.159,0.525,0.25
				c0.081,0.092,0.205,0.436,0.113,0.538c-0.092,0.101-0.57-0.068-0.651-0.078C71.489,36.288,70.808,35.944,70.895,35.618z"/>
			<path fill="#FFFFFF" d="M85.487,55.495c-0.124,0.079-0.58,0.172-0.64,0.081c-0.061-0.091,0.328-0.467,0.414-0.605
				c0.086-0.138,0.301-0.438,0.499-0.251C85.958,54.907,85.701,55.358,85.487,55.495z"/>
			<path fill="#FFFFFF" d="M84.462,53.581c-0.074,0.09-0.412,0.289-0.491,0.244c-0.079-0.044,0.111-0.415,0.135-0.535
				c0.024-0.12,0.098-0.388,0.32-0.319C84.648,53.041,84.589,53.424,84.462,53.581z"/>
			<path fill="#FFFFFF" d="M83.391,57.081c0.139-0.076,0.229,0.105,0.276,0.215c0.047,0.11-0.017,0.256-0.127,0.403
				c-0.11,0.146-0.377,0.463-0.551,0.229S83.15,57.211,83.391,57.081z"/>
			<path fill="#FFFFFF" d="M82.5,41.633c-0.006-0.157,0.197-0.155,0.317-0.148c0.12,0.007,0.223,0.13,0.306,0.294
				c0.083,0.164,0.248,0.542-0.041,0.592S82.509,41.905,82.5,41.633z"/>
			<path fill="#FFFFFF" d="M79.933,40.119c-0.1-0.214,0.171-0.21,0.335-0.2s0.373,0.177,0.58,0.4
				c0.206,0.223,0.648,0.738,0.293,0.803C80.786,41.188,80.105,40.488,79.933,40.119z"/>
			<path fill="#FFFFFF" d="M85.61,48.694c0.053-0.186,0.324-0.185,0.482-0.177c0.158,0.008,0.249,0.152,0.296,0.345
				s0.122,0.639-0.284,0.699C85.7,49.621,85.518,49.015,85.61,48.694z"/>
		</g>
		<g>
			<path d="M85.124,35.926c-0.037,0.008-22.053,1.879-24.92,1.523c-1.792-0.223-7.403,0.122-9.678-0.604
				c-1.574-0.502-0.267-1.897-0.267-2.781c0-3.384,10.98-15.989,18.564-21.622C82.176,2.526,94.587-0.446,97.708,1.62
				c0,0,1.292,0.597,1.292,2.853c0,2.255-0.326,1.15-0.598,1.899c-0.142,0.391,0.447,1.693,0.236,2.29
				c-0.319,0.903-2.628,5.545-4.063,7.207c-1.435,1.662-2.272,4.273-2.631,5.579c-0.359,1.306-2.631,9.378-3.109,9.971
				c-0.479,0.594-0.957,1.899-1.077,2.493S86.796,35.804,85.124,35.926z"/>
			<path fill="#FFFFFF" d="M91.09,3.062c0.206-0.362,0.859-0.799,1.248-0.742s0.771,0.847,0.771,0.847s-0.234,0.676-0.91,0.765
				C91.523,4.021,90.885,3.423,91.09,3.062z"/>
			<path fill="#FFFFFF" d="M93.382,4.939c0.218-0.222,0.873-0.4,1.243-0.272c0.37,0.128,0.691,0.796,0.691,0.796
				s-0.265,0.447-0.92,0.364S93.163,5.161,93.382,4.939z"/>
			<path fill="#FFFFFF" d="M94.072,8.06c0.307-0.182,0.979-0.228,1.242-0.021s0.209,0.953,0.209,0.953s-0.463,0.401-1.002,0.182
				S93.765,8.242,94.072,8.06z"/>
			<path fill="#FFFFFF" d="M92.968,11.842c0.252-0.149,0.805-0.188,1.022-0.017c0.217,0.17,0.172,0.784,0.172,0.784
				s-0.381,0.33-0.824,0.148C92.895,12.576,92.715,11.991,92.968,11.842z"/>
			<path fill="#FFFFFF" d="M86.174,32.667c0.151-0.183,0.572-0.361,0.794-0.289c0.222,0.072,0.376,0.555,0.376,0.555
				s-0.196,0.356-0.599,0.336C86.343,33.25,86.022,32.849,86.174,32.667z"/>
			<path fill="#FFFFFF" d="M88.167,29.917c-0.115-0.113-0.206-0.481-0.139-0.703s0.416-0.447,0.416-0.447s0.232,0.127,0.187,0.51
				S88.282,30.031,88.167,29.917z"/>
			<path fill="#FFFFFF" d="M89.09,27.007c-0.125-0.12-0.227-0.506-0.157-0.738c0.07-0.231,0.442-0.463,0.442-0.463
				s0.251,0.136,0.207,0.537C89.538,26.744,89.215,27.127,89.09,27.007z"/>
			<path fill="#FFFFFF" d="M90.215,23.797c-0.106-0.136-0.15-0.534-0.046-0.752s0.505-0.394,0.505-0.394s0.229,0.171,0.125,0.562
				C90.696,23.602,90.321,23.934,90.215,23.797z"/>
			<path fill="#FFFFFF" d="M90.202,20.013c0.084-0.215,0.396-0.504,0.601-0.501s0.452,0.411,0.452,0.411s-0.079,0.391-0.424,0.49
				C90.486,20.511,90.118,20.229,90.202,20.013z"/>
			<path fill="#FFFFFF" d="M91.824,17.842c0.005-0.187,0.271-0.772,0.413-0.817c0.142-0.045,0.412,0.215,0.412,0.215
				s0.04,0.322-0.173,0.479S91.818,18.029,91.824,17.842z"/>
			<path fill="#FFFFFF" d="M94.151,14.394c-0.025,0.185-0.352,0.739-0.498,0.769s-0.387-0.257-0.387-0.257s-0.005-0.325,0.224-0.458
				S94.177,14.209,94.151,14.394z"/>
			<path fill="#FFFFFF" d="M95.812,12.643c-0.021,0.183-0.312,0.728-0.444,0.757c-0.132,0.028-0.352-0.258-0.352-0.258
				s-0.008-0.321,0.198-0.451S95.833,12.46,95.812,12.643z"/>
			<path fill="#FFFFFF" d="M97.52,9.149c-0.031,0.14-0.383,0.567-0.535,0.594C96.833,9.77,96.593,9.56,96.593,9.56
				s0.003-0.245,0.243-0.352C97.076,9.102,97.551,9.009,97.52,9.149z"/>
			<path fill="#FFFFFF" d="M96.73,5.572c0.118-0.083,0.668-0.162,0.798-0.08s0.165,0.397,0.165,0.397s-0.155,0.1-0.418,0.097
				C96.835,5.981,96.612,5.654,96.73,5.572z"/>
			<path fill="#FFFFFF" d="M97.606,7.295c-0.109,0.093-0.649,0.226-0.787,0.157c-0.137-0.069-0.203-0.38-0.203-0.38
				s0.197-0.078,0.454-0.021C97.327,7.109,97.716,7.201,97.606,7.295z"/>
			<path fill="#FFFFFF" d="M97.052,3.69c-0.116,0.089-0.713,0.187-0.873,0.105c-0.16-0.083-0.257-0.413-0.257-0.413
				s0.216-0.066,0.509,0.013C96.724,3.474,97.169,3.6,97.052,3.69z"/>
			<path fill="#FFFFFF" d="M88.639,2.796c0.139-0.115,1.341-0.736,1.743-0.807c0.402-0.071,1.012,0.074,1.012,0.074
				s-0.362,0.465-1.006,0.644C89.744,2.886,88.37,3.019,88.639,2.796z"/>
			<path fill="#FFFFFF" d="M70.609,13.213c0.099-0.16,1.082-1.216,1.456-1.452s1.459-0.819,1.459-0.819s-0.636,1-1.213,1.434
				C71.732,12.81,70.417,13.521,70.609,13.213z"/>
			<path fill="#FFFFFF" d="M76.857,8.749c0.079-0.114,0.821-0.762,1.093-0.856c0.272-0.094,1.052-0.275,1.052-0.275
				s-0.502,0.71-0.926,0.92C77.652,8.747,76.705,8.969,76.857,8.749z"/>
			<path fill="#FFFFFF" d="M64.516,17.413c0.03-0.091,0.396-0.648,0.557-0.753c0.161-0.105,0.639-0.344,0.639-0.344
				s-0.196,0.566-0.435,0.773C65.038,17.295,64.458,17.588,64.516,17.413z"/>
			<path fill="#FFFFFF" d="M70.885,12.071c0.03-0.091,0.396-0.648,0.557-0.753s0.639-0.344,0.639-0.344s-0.196,0.566-0.435,0.773
				C71.406,11.953,70.826,12.246,70.885,12.071z"/>
			<path fill="#FFFFFF" d="M76.351,8.463c0.03-0.091,0.396-0.648,0.557-0.754c0.161-0.105,0.639-0.344,0.639-0.344
				s-0.196,0.566-0.435,0.773C76.873,8.345,76.293,8.638,76.351,8.463z"/>
			<path fill="#FFFFFF" d="M95.569,2.518c0.067-0.122,0.535-0.429,0.697-0.416c0.162,0.014,0.355,0.27,0.355,0.27
				S96.463,2.51,96.19,2.548C95.917,2.587,95.501,2.64,95.569,2.518z"/>
			<g>
				<linearGradient id="SVGID_36_" gradientUnits="userSpaceOnUse" x1="51.3721" y1="25.2046" x2="74.3335" y2="25.2046">
					<stop  offset="0" style="stop-color:#CCE0F4"/>
					<stop  offset="0.0641" style="stop-color:#C3DCF2"/>
					<stop  offset="0.1706" style="stop-color:#A9D2EE"/>
					<stop  offset="0.3066" style="stop-color:#80C2E7"/>
					<stop  offset="0.4649" style="stop-color:#47ACDE"/>
					<stop  offset="0.5674" style="stop-color:#1E9CD7"/>
					<stop  offset="0.8652" style="stop-color:#0075BE"/>
					<stop  offset="0.9944" style="stop-color:#005B97"/>
				</linearGradient>
				<path fill="url(#SVGID_36_)" d="M56.767,27.322c3.478-4.016,11.997-10.287,13.701-10.851c0.936-0.31,3.479-0.493,3.833,0.563
					c0.355,1.057-2.343,4.087-3.124,4.792c-0.781,0.704-6.602,4.861-8.589,6.271c-1.988,1.409-10.01,5.777-10.364,5.989
					c-0.355,0.211-0.852,0.07-0.852-0.493S54.899,29.479,56.767,27.322z"/>
				<linearGradient id="SVGID_37_" gradientUnits="userSpaceOnUse" x1="73.5181" y1="18.1299" x2="86.5923" y2="18.1299">
					<stop  offset="0" style="stop-color:#CCE0F4"/>
					<stop  offset="0.0641" style="stop-color:#C3DCF2"/>
					<stop  offset="0.1706" style="stop-color:#A9D2EE"/>
					<stop  offset="0.3066" style="stop-color:#80C2E7"/>
					<stop  offset="0.4649" style="stop-color:#47ACDE"/>
					<stop  offset="0.5674" style="stop-color:#1E9CD7"/>
					<stop  offset="0.8652" style="stop-color:#0075BE"/>
					<stop  offset="0.9944" style="stop-color:#005B97"/>
				</linearGradient>
				<path fill="url(#SVGID_37_)" d="M82.749,19.995c-0.994,0.705-9.157,1.101-9.229,0.845c-0.071-0.255,1.636-3.206,2.271-3.664
					c0.636-0.457,4.898-1.902,6.602-1.832c1.704,0.071,4.384,2.075,4.188,2.255s-0.781,0.211-0.781,0.211
					S83.742,19.29,82.749,19.995z"/>
				<linearGradient id="SVGID_38_" gradientUnits="userSpaceOnUse" x1="67.2378" y1="24.1602" x2="85.9541" y2="24.1602">
					<stop  offset="0" style="stop-color:#CCE0F4"/>
					<stop  offset="0.0641" style="stop-color:#C3DCF2"/>
					<stop  offset="0.1706" style="stop-color:#A9D2EE"/>
					<stop  offset="0.3066" style="stop-color:#80C2E7"/>
					<stop  offset="0.4649" style="stop-color:#47ACDE"/>
					<stop  offset="0.5674" style="stop-color:#1E9CD7"/>
					<stop  offset="0.8652" style="stop-color:#0075BE"/>
					<stop  offset="0.9944" style="stop-color:#005B97"/>
				</linearGradient>
				<path fill="url(#SVGID_38_)" d="M82.854,26.834c-0.673,0.401-16.012-0.222-15.608-0.667c0.403-0.445,4.485-3.828,5.561-4.407
					c1.077-0.579,11.168-0.489,11.706,0c0.539,0.49,0.539,1.692,0.539,1.692s0.986,0.49,0.897,0.712
					c-0.09,0.223-0.942,0.445-0.942,0.445S83.526,26.434,82.854,26.834z"/>
				<linearGradient id="SVGID_39_" gradientUnits="userSpaceOnUse" x1="53.3818" y1="30.6279" x2="85.5503" y2="30.6279">
					<stop  offset="0" style="stop-color:#CCE0F4"/>
					<stop  offset="0.0641" style="stop-color:#C3DCF2"/>
					<stop  offset="0.1706" style="stop-color:#A9D2EE"/>
					<stop  offset="0.3066" style="stop-color:#80C2E7"/>
					<stop  offset="0.4649" style="stop-color:#47ACDE"/>
					<stop  offset="0.5674" style="stop-color:#1E9CD7"/>
					<stop  offset="0.8652" style="stop-color:#0075BE"/>
					<stop  offset="0.9944" style="stop-color:#005B97"/>
				</linearGradient>
				<path fill="url(#SVGID_39_)" d="M53.386,34.008c0.403-0.445,11.617-6.15,12.693-6.729c1.077-0.579,16.909,0.445,17.447,0.935
					c0.538,0.49,1.121,1.781,1.121,1.781s0.987,0.49,0.897,0.712s-0.942,0.445-0.942,0.445s-0.673,1.78-1.346,2.181
					C82.584,33.734,52.982,34.453,53.386,34.008z"/>
				<linearGradient id="SVGID_40_" gradientUnits="userSpaceOnUse" x1="52.4731" y1="35.1274" x2="63.8286" y2="35.1274">
					<stop  offset="0" style="stop-color:#CCE0F4"/>
					<stop  offset="0.0641" style="stop-color:#C3DCF2"/>
					<stop  offset="0.1706" style="stop-color:#A9D2EE"/>
					<stop  offset="0.3066" style="stop-color:#80C2E7"/>
					<stop  offset="0.4649" style="stop-color:#47ACDE"/>
					<stop  offset="0.5674" style="stop-color:#1E9CD7"/>
					<stop  offset="0.8652" style="stop-color:#0075BE"/>
					<stop  offset="0.9944" style="stop-color:#005B97"/>
				</linearGradient>
				<path fill="url(#SVGID_40_)" d="M53.527,34.577c0.479-0.047,10.764,0.333,10.286,0.57c-0.478,0.237-4.114,0.427-5.214,0.522
					c-1.101,0.095-6.219-0.332-6.124-0.665S53.048,34.625,53.527,34.577z"/>
				<linearGradient id="SVGID_41_" gradientUnits="userSpaceOnUse" x1="75.3647" y1="14.501" x2="79.4102" y2="14.501">
					<stop  offset="0" style="stop-color:#CCE0F4"/>
					<stop  offset="0.0641" style="stop-color:#C3DCF2"/>
					<stop  offset="0.1706" style="stop-color:#A9D2EE"/>
					<stop  offset="0.3066" style="stop-color:#80C2E7"/>
					<stop  offset="0.4649" style="stop-color:#47ACDE"/>
					<stop  offset="0.5674" style="stop-color:#1E9CD7"/>
					<stop  offset="0.8652" style="stop-color:#0075BE"/>
					<stop  offset="0.9944" style="stop-color:#005B97"/>
				</linearGradient>
				<path fill="url(#SVGID_41_)" d="M75.782,15.605c-0.4-0.061-0.554-1.069-0.277-1.405s2.4-0.794,2.738-0.794
					s1.015-0.092,1.139,0.214c0.123,0.305-0.185,0.641-0.4,0.855S76.182,15.667,75.782,15.605z"/>
				<linearGradient id="SVGID_42_" gradientUnits="userSpaceOnUse" x1="73.1099" y1="12.5068" x2="76.5239" y2="12.5068">
					<stop  offset="0" style="stop-color:#CCE0F4"/>
					<stop  offset="0.0641" style="stop-color:#C3DCF2"/>
					<stop  offset="0.1706" style="stop-color:#A9D2EE"/>
					<stop  offset="0.3066" style="stop-color:#80C2E7"/>
					<stop  offset="0.4649" style="stop-color:#47ACDE"/>
					<stop  offset="0.5674" style="stop-color:#1E9CD7"/>
					<stop  offset="0.8652" style="stop-color:#0075BE"/>
					<stop  offset="0.9944" style="stop-color:#005B97"/>
				</linearGradient>
				<path fill="url(#SVGID_42_)" d="M73.443,13.987c-0.247-0.092-0.431-0.366-0.277-1.008c0.154-0.641,3.015-2.09,3.169-1.954
					c0.277,0.244,0.215,1.771,0.031,2.168S73.689,14.079,73.443,13.987z"/>
				<linearGradient id="SVGID_43_" gradientUnits="userSpaceOnUse" x1="80.5864" y1="9.4775" x2="83.9072" y2="9.4775">
					<stop  offset="0" style="stop-color:#CCE0F4"/>
					<stop  offset="0.0641" style="stop-color:#C3DCF2"/>
					<stop  offset="0.1706" style="stop-color:#A9D2EE"/>
					<stop  offset="0.3066" style="stop-color:#80C2E7"/>
					<stop  offset="0.4649" style="stop-color:#47ACDE"/>
					<stop  offset="0.5674" style="stop-color:#1E9CD7"/>
					<stop  offset="0.8652" style="stop-color:#0075BE"/>
					<stop  offset="0.9944" style="stop-color:#005B97"/>
				</linearGradient>
				<path fill="url(#SVGID_43_)" d="M82.901,10.839c-1.208,0.43-2.508-0.553-2.291-1.26s1.083-1.506,1.827-1.567
					s1.455,1.199,1.455,1.199S84.109,10.409,82.901,10.839z"/>
				<linearGradient id="SVGID_44_" gradientUnits="userSpaceOnUse" x1="84.2324" y1="12.7373" x2="88.0718" y2="12.7373">
					<stop  offset="0" style="stop-color:#CCE0F4"/>
					<stop  offset="0.0641" style="stop-color:#C3DCF2"/>
					<stop  offset="0.1706" style="stop-color:#A9D2EE"/>
					<stop  offset="0.3066" style="stop-color:#80C2E7"/>
					<stop  offset="0.4649" style="stop-color:#47ACDE"/>
					<stop  offset="0.5674" style="stop-color:#1E9CD7"/>
					<stop  offset="0.8652" style="stop-color:#0075BE"/>
					<stop  offset="0.9944" style="stop-color:#005B97"/>
				</linearGradient>
				<path fill="url(#SVGID_44_)" d="M86.888,11.379c0.705,0.242,1.184,1.765,1.184,1.765s-0.631,1.098-1.911,1.007
					s-2.29-1.369-1.804-1.929C84.843,11.663,86.184,11.137,86.888,11.379z"/>
				<linearGradient id="SVGID_45_" gradientUnits="userSpaceOnUse" x1="88.5879" y1="16.3066" x2="90.4897" y2="16.3066">
					<stop  offset="0" style="stop-color:#CCE0F4"/>
					<stop  offset="0.0641" style="stop-color:#C3DCF2"/>
					<stop  offset="0.1706" style="stop-color:#A9D2EE"/>
					<stop  offset="0.3066" style="stop-color:#80C2E7"/>
					<stop  offset="0.4649" style="stop-color:#47ACDE"/>
					<stop  offset="0.5674" style="stop-color:#1E9CD7"/>
					<stop  offset="0.8652" style="stop-color:#0075BE"/>
					<stop  offset="0.9944" style="stop-color:#005B97"/>
				</linearGradient>
				<path fill="url(#SVGID_45_)" d="M88.59,16.63c0.048-0.386,0.48-1.006,0.86-1.105c0.38-0.099,1.039,0.429,1.039,0.429
					s0.047,0.664-0.54,0.996C89.361,17.282,88.542,17.016,88.59,16.63z"/>
				<linearGradient id="SVGID_46_" gradientUnits="userSpaceOnUse" x1="86.7471" y1="19.4492" x2="88.2852" y2="19.4492">
					<stop  offset="0" style="stop-color:#CCE0F4"/>
					<stop  offset="0.0641" style="stop-color:#C3DCF2"/>
					<stop  offset="0.1706" style="stop-color:#A9D2EE"/>
					<stop  offset="0.3066" style="stop-color:#80C2E7"/>
					<stop  offset="0.4649" style="stop-color:#47ACDE"/>
					<stop  offset="0.5674" style="stop-color:#1E9CD7"/>
					<stop  offset="0.8652" style="stop-color:#0075BE"/>
					<stop  offset="0.9944" style="stop-color:#005B97"/>
				</linearGradient>
				<path fill="url(#SVGID_46_)" d="M87.74,18.897c0.288,0.065,0.545,0.64,0.545,0.64s-0.199,0.455-0.707,0.474
					c-0.508,0.018-0.963-0.439-0.797-0.678C86.948,19.094,87.451,18.833,87.74,18.897z"/>
				<linearGradient id="SVGID_47_" gradientUnits="userSpaceOnUse" x1="87.3667" y1="22.2764" x2="88.9238" y2="22.2764">
					<stop  offset="0" style="stop-color:#CCE0F4"/>
					<stop  offset="0.0641" style="stop-color:#C3DCF2"/>
					<stop  offset="0.1706" style="stop-color:#A9D2EE"/>
					<stop  offset="0.3066" style="stop-color:#80C2E7"/>
					<stop  offset="0.4649" style="stop-color:#47ACDE"/>
					<stop  offset="0.5674" style="stop-color:#1E9CD7"/>
					<stop  offset="0.8652" style="stop-color:#0075BE"/>
					<stop  offset="0.9944" style="stop-color:#005B97"/>
				</linearGradient>
				<path fill="url(#SVGID_47_)" d="M87.408,22.181c0.18-0.283,0.704-0.607,0.993-0.546c0.289,0.061,0.523,0.71,0.523,0.71
					s-0.224,0.534-0.74,0.579C87.668,22.967,87.228,22.463,87.408,22.181z"/>
				<linearGradient id="SVGID_48_" gradientUnits="userSpaceOnUse" x1="86.6396" y1="26.1655" x2="87.7197" y2="26.1655">
					<stop  offset="0" style="stop-color:#CCE0F4"/>
					<stop  offset="0.0641" style="stop-color:#C3DCF2"/>
					<stop  offset="0.1706" style="stop-color:#A9D2EE"/>
					<stop  offset="0.3066" style="stop-color:#80C2E7"/>
					<stop  offset="0.4649" style="stop-color:#47ACDE"/>
					<stop  offset="0.5674" style="stop-color:#1E9CD7"/>
					<stop  offset="0.8652" style="stop-color:#0075BE"/>
					<stop  offset="0.9944" style="stop-color:#005B97"/>
				</linearGradient>
				<path fill="url(#SVGID_48_)" d="M87.064,25.692c0.217-0.085,0.647,0.188,0.647,0.188s0.079,0.398-0.244,0.639
					c-0.322,0.24-0.827,0.136-0.828-0.101C86.638,26.182,86.847,25.778,87.064,25.692z"/>
				<linearGradient id="SVGID_49_" gradientUnits="userSpaceOnUse" x1="85.0063" y1="6.2915" x2="92.186" y2="6.2915">
					<stop  offset="0" style="stop-color:#CCE0F4"/>
					<stop  offset="0.0641" style="stop-color:#C3DCF2"/>
					<stop  offset="0.1706" style="stop-color:#A9D2EE"/>
					<stop  offset="0.3066" style="stop-color:#80C2E7"/>
					<stop  offset="0.4649" style="stop-color:#47ACDE"/>
					<stop  offset="0.5674" style="stop-color:#1E9CD7"/>
					<stop  offset="0.8652" style="stop-color:#0075BE"/>
					<stop  offset="0.9944" style="stop-color:#005B97"/>
				</linearGradient>
				<path fill="url(#SVGID_49_)" d="M88.116,7.144c-1.375,0.119-3.109-0.119-3.109-0.475s2.332-1.187,3.229-1.247
					c0.897-0.059,3.828,0.06,3.947,0.534C92.302,6.432,89.491,7.025,88.116,7.144z"/>
				<linearGradient id="SVGID_50_" gradientUnits="userSpaceOnUse" x1="85.3052" y1="9.4023" x2="92.9629" y2="9.4023">
					<stop  offset="0" style="stop-color:#CCE0F4"/>
					<stop  offset="0.0641" style="stop-color:#C3DCF2"/>
					<stop  offset="0.1706" style="stop-color:#A9D2EE"/>
					<stop  offset="0.3066" style="stop-color:#80C2E7"/>
					<stop  offset="0.4649" style="stop-color:#47ACDE"/>
					<stop  offset="0.5674" style="stop-color:#1E9CD7"/>
					<stop  offset="0.8652" style="stop-color:#0075BE"/>
					<stop  offset="0.9944" style="stop-color:#005B97"/>
				</linearGradient>
				<path fill="url(#SVGID_50_)" d="M85.305,9.815c0-0.356,2.341-1.105,3.229-1.247c1.495-0.237,4.306,0.06,4.426,0.534
					c0.119,0.475-3.169,1.068-4.545,1.187S85.305,10.171,85.305,9.815z"/>
			</g>
		</g>
	</g>
	<g>
		<path d="M48.498,28.25c-0.144-0.634-1.131-2.239-2.076-3.928c-1.1-1.964-2.302-4.008-2.448-4.857
			c-0.27-1.562,0.635-4.695,0.667-4.851c0.031-0.156,0.054-0.403,0.087-0.261c0.033,0.143-0.792,3.568-0.527,5.097
			c0.142,0.822,1.272,2.84,2.366,4.792c0.951,1.699,1.851,3.304,2,3.96L48.498,28.25z"/>
		<path d="M51.502,28.25c0.144-0.634,1.131-2.239,2.076-3.928c1.1-1.964,2.302-4.008,2.448-4.857
			c0.27-1.562-0.635-4.695-0.667-4.851c-0.031-0.156-0.054-0.403-0.087-0.261c-0.033,0.143,0.792,3.568,0.527,5.097
			c-0.142,0.822-1.272,2.84-2.366,4.792c-0.951,1.699-1.851,3.304-2,3.96L51.502,28.25z"/>
		<g>
			<path d="M51.555,32.371c0.066-0.432,0.081-0.845,0.057-1.231c0.378-0.425,0.612-0.999,0.612-1.632
				c0-1.31-0.329-2.372-2.225-2.372s-2.225,1.062-2.225,2.372c0,0.633,0.234,1.207,0.612,1.632
				c-0.024,0.386-0.009,0.799,0.057,1.231c0.366,2.372-0.366,4.825,0,7.033c0.366,2.208,0.64,4.253,0.64,4.907
				c0,0.655-0.64,8.751-0.457,10.06c0.183,1.308,0.274,2.29,0.457,4.334C49.268,60.75,50,62.877,50,62.877s0.732-2.126,0.915-4.171
				c0.183-2.045,0.274-3.026,0.457-4.334c0.183-1.309-0.457-9.405-0.457-10.06c0-0.654,0.274-2.699,0.64-4.907
				C51.921,37.196,51.189,34.743,51.555,32.371z"/>
			<path fill="#FFFFFF" d="M49.515,27.541c-0.149-0.098-0.993,0.32-0.993,0.32s-0.298,0.591-0.198,1.083
				c0.099,0.492,0.248-0.247,0.471-0.616C49.019,27.959,49.664,27.64,49.515,27.541z"/>
			<path fill="#FFFFFF" d="M48.942,31.321c-0.192-0.191-0.22,0.3-0.22,0.6c0,0.3,0.192,0.409,0.22,0.545
				c0.028,0.136,0.22,0.218,0.302,0.082s0.165-0.518,0.165-0.518S49.135,31.512,48.942,31.321z"/>
			<path fill="#FFFFFF" d="M48.942,33.339c0,0-0.165,0.409-0.055,0.791c0.109,0.382,0.027,0.708-0.027,1.172
				c-0.055,0.463-0.192,0.981-0.165,1.772s0.357,1.5,0.357,1.5s-0.165-0.927-0.082-1.363c0.082-0.436,0.274-1.336,0.274-1.881
				C49.245,34.784,48.942,33.339,48.942,33.339z"/>
		</g>
	</g>
</g>
</svg>
