<?xml version="1.0" encoding="utf-8"?>
<!-- Generator: Adobe Illustrator 15.0.0, SVG Export Plug-In . SVG Version: 6.00 Build 0)  -->
<!DOCTYPE svg PUBLIC "-//W3C//DTD SVG 1.1//EN" "http://www.w3.org/Graphics/SVG/1.1/DTD/svg11.dtd">
<svg version="1.1" xmlns="http://www.w3.org/2000/svg" xmlns:xlink="http://www.w3.org/1999/xlink" x="0px" y="0px"
	 width="21.188px" height="21.613px" viewBox="0 0 21.188 21.613" style="enable-background:new 0 0 21.188 21.613;"
	 xml:space="preserve">
<style type="text/css">
<![CDATA[
	.st0{display:inline;fill:#FCEE21;stroke:#DD7C3B;stroke-miterlimit:10;}
	.st1{display:inline;fill:#DD7C3B;stroke:#DD7C3B;stroke-miterlimit:10;}
	.st2{fill:#DD7C3B;stroke:#DD7C3B;stroke-miterlimit:10;}
	.st3{display:none;}
]]>
</style>
<g id="moon" class="st3">
	<path class="st1" d="M15.334,16.53c-4.971,0-9-4.029-9-9c0-2.735,1.224-5.18,3.149-6.831C4.421,1.325,0.5,5.632,0.5,10.863
		c0,5.661,4.589,10.25,10.25,10.25c4.109,0,7.644-2.424,9.278-5.915C18.66,16.038,17.057,16.53,15.334,16.53z"/>
</g>
<g id="レイヤー_2" class="st3">
	<path class="st0" d="M15.334,16.53c-4.971,0-9-4.029-9-9c0-2.735,1.224-5.181,3.149-6.831C4.421,1.324,0.5,5.632,0.5,10.863
		c0,5.661,4.589,10.25,10.25,10.25c4.109,0,7.644-2.424,9.278-5.915C18.66,16.038,17.057,16.53,15.334,16.53z"/>
</g>
<g id="レイヤー_3">
	<path class="st2" d="M15.334,16.53c-4.971,0-9-4.029-9-9c0-2.735,1.224-5.181,3.149-6.831C4.421,1.324,0.5,5.632,0.5,10.863
		c0,5.661,4.589,10.25,10.25,10.25c4.109,0,7.644-2.424,9.278-5.915C18.66,16.038,17.057,16.53,15.334,16.53z"/>
</g>
</svg>
